<svg width="28" height="20" viewBox="0 0 28 20" fill="none" xmlns="http://www.w3.org/2000/svg">
<path d="M28 17.3333C28 18.806 26.806 20 25.3333 20H2.66667C1.194 20 0 18.806 0 17.3333V2.66667C0 1.194 1.194 0 2.66667 0H25.3333C26.806 0 28 1.194 28 2.66667V17.3333Z" fill="#1565C0"/>
<path d="M8.12402 6.66668L6.37336 11.888C6.37336 11.888 5.92869 9.67935 5.88469 9.40202C4.88802 7.12802 3.41736 7.25468 3.41736 7.25468L5.15069 14V13.9987H7.25802L10.172 6.66668H8.12402ZM9.79269 14H11.7067L12.864 6.66668H10.926L9.79269 14ZM23.3387 6.66668H21.3247L18.1847 14H20.086L20.478 12.9527H22.8754L23.0794 14H24.8214L23.3387 6.66668ZM21.0087 11.552L22.0507 8.78068L22.596 11.552H21.0087ZM15.5794 8.80401C15.5794 8.40001 15.9114 8.09935 16.8634 8.09935C17.482 8.09935 18.1907 8.54868 18.1907 8.54868L18.5014 7.00935C18.5014 7.00935 17.596 6.66602 16.7074 6.66602C14.6947 6.66602 13.6567 7.62868 13.6567 8.84735C13.6567 11.0513 16.3094 10.7493 16.3094 11.8813C16.3094 12.0753 16.1554 12.524 15.0507 12.524C13.9427 12.524 13.2114 12.118 13.2114 12.118L12.8814 13.5953C12.8814 13.5953 13.59 13.9993 14.9594 13.9993C16.332 13.9993 18.236 12.9727 18.236 11.498C18.236 9.72402 15.5794 9.59601 15.5794 8.80401Z" fill="white"/>
<path d="M6.14131 10.63L5.49731 7.46469C5.49731 7.46469 5.20598 6.77869 4.44865 6.77869C3.69131 6.77869 1.48865 6.77869 1.48865 6.77869C1.48865 6.77869 5.26265 7.89335 6.14131 10.63Z" fill="#FFC107"/>
</svg>
