<svg width="32" height="20" viewBox="0 0 32 20" fill="none" xmlns="http://www.w3.org/2000/svg">
<path d="M29.3622 0H1.92082C0.859981 0 0 0.859981 0 1.92082V18.0792C0 19.14 0.859981 20 1.92082 20H29.3622C30.423 20 31.283 19.14 31.283 18.0792V1.92082C31.283 0.859981 30.423 0 29.3622 0Z" fill="url(#paint0_linear_718_2301)"/>
<path fill-rule="evenodd" clip-rule="evenodd" d="M8.34307 9.80933L8.48237 9.25947C9.01756 9.09818 10.1099 9.02487 10.3152 9.60405C10.4325 9.94129 10.0953 11.3416 10.0293 11.7521L9.50876 11.7595C9.39146 11.6128 9.48676 11.8841 9.40612 11.5249C8.90759 11.9721 7.84454 11.8988 7.92518 10.997C8.00583 10.1026 8.78295 10.2199 9.62606 10.0879C9.6114 9.51607 8.89292 9.67003 8.33574 9.80199L8.34307 9.80933ZM12.2654 9.72135C11.7888 9.72135 11.7155 9.61871 11.2976 9.80199C11.3489 10.3225 11.6202 10.1172 11.9941 10.3665C12.7052 10.8357 11.9428 12.2873 10.2492 11.6642L10.3445 11.1363C10.8211 11.2316 11.063 11.3269 11.4296 11.1216C11.5176 10.3812 10.2052 10.865 10.5718 9.67736C10.7698 9.0322 11.6422 9.12018 12.3607 9.18616L12.258 9.72135H12.2654ZM4.9633 8.59965L6.08501 8.63631L6.20231 10.3958L6.81081 8.98821C7.01609 8.48235 6.87679 8.59232 8.16712 8.60698L7.58794 11.7521L6.95744 11.7448L7.30201 9.48675L6.37093 11.7595L5.6158 11.7375C5.5938 11.2976 5.55715 9.75067 5.43984 9.45742L5.05861 11.7448L4.39879 11.7375L4.9633 8.59965ZM15.6598 15.2785L15.9677 14.912C15.3519 14.8313 15.2419 15.0073 14.9633 14.5087L16.3783 14.4941C16.4662 14.3474 16.6129 14.2082 16.6862 14.0395C15.0733 13.9296 14.6187 14.3401 14.3621 13.6363H16.9501L17.236 13.1891L14.0395 13.1744L13.8929 12.8005L17.3387 12.7859C17.5366 12.6759 17.5366 12.5513 17.5879 12.324L14.3255 12.3167C13.739 12.324 13.7023 12.456 13.5923 11.9208H17.6979L17.8299 11.4662L16.6275 11.4516L16.5689 11.7595L15.8797 11.7301L16.3123 9.1715L16.9648 9.25947C16.9648 9.27414 16.9794 9.32545 16.9794 9.34745C16.9794 9.36211 16.9868 9.38411 16.9868 9.39144L17.0234 9.5234C17.2067 9.30346 17.324 9.14217 17.7492 9.15683L17.5293 9.75067C17.4047 9.91197 17.0381 9.72868 16.8841 10.1686L17.6026 10.1979C17.6832 9.73601 17.7712 9.59672 17.9032 9.22282L17.9105 9.00287L13.4164 9.01021L13.4017 9.1715C13.6437 9.1715 13.6363 9.12751 13.7756 9.24481L13.7096 9.67736C13.2551 9.78733 13.2698 9.51607 13.2258 10.1099C13.2917 10.2199 13.2111 10.1612 13.3504 10.1979L13.6363 10.2052C14.0982 8.70229 15.4765 9.0322 15.7917 9.50141C15.9604 9.75067 16.129 10.5718 15.7111 10.6378L14.3108 10.6524C14.3768 11.3929 15.2272 11.2389 15.7771 11.0557C15.7551 11.3636 15.7771 11.6128 15.4912 11.7155C15.2639 11.7961 14.7874 11.7741 14.5381 11.7155C13.9222 11.5762 13.6583 11.2683 13.6143 10.6011L13.3504 10.5938C13.1085 10.4838 13.2991 10.5938 13.1744 10.2932C13.0718 10.909 12.7932 11.3049 13.5557 11.217C13.5117 11.5835 13.563 11.7082 13.1598 11.7521C11.9868 11.8914 12.368 11.107 12.5586 10.0586C12.8592 8.38704 12.6246 8.59232 13.475 8.60698L17.8445 8.61431L17.7566 8.15977L13.5337 8.1451L13.6143 7.77853L17.6099 7.75654C17.5073 7.13337 17.4853 7.28733 16.0337 7.28733C15.2932 7.28733 14.5601 7.28733 13.8196 7.28733C13.9736 6.75214 13.8929 6.89877 15.3299 6.89877H17.2727L17.0674 6.43689L14.2522 6.42956L14.4428 6.04833L16.7961 6.03367C16.4956 5.41783 16.5102 5.59378 14.846 5.56446C15.0586 5.0366 15.4325 5.16856 16.085 5.16856C15.9017 4.87531 15.7698 4.8973 15.6598 4.64804C15.3885 4.50874 15.1466 4.25947 14.8753 4.06886C12.8005 2.60258 9.9853 2.44862 7.72723 3.54833C5.69644 4.53073 3.70231 6.80346 3.7243 9.94862C3.75363 14.4428 7.69791 17.7199 12.1627 16.9574C14.2595 16.5982 14.7874 15.7477 15.6525 15.2712L15.6598 15.2785Z" fill="#E41D2C"/>
<path fill-rule="evenodd" clip-rule="evenodd" d="M20.4473 9.23743C22.72 8.77555 22.3461 9.89726 22.1628 10.8063C22.1042 11.0776 22.1042 11.6128 21.8916 11.7594C21.8402 11.7594 21.5397 11.7668 21.5103 11.7521C21.3051 11.6714 21.4004 11.9134 21.371 11.5395C20.7552 11.8914 19.7801 11.972 19.8974 10.9896C19.9927 10.2052 20.7845 10.0805 21.591 10.1172C21.5617 9.53802 21.0338 9.63333 20.3007 9.81661L20.4546 9.23743H20.4473ZM22.6907 9.17145L23.2992 9.17878C23.3065 9.19344 23.3139 9.21544 23.3139 9.2301L23.4092 9.50136C23.5191 9.33274 23.7244 9.18611 24.047 9.17878L23.959 9.69931L23.6584 9.81661C23.0573 10.0146 23.0939 10.7697 22.9326 11.7594H22.2508L22.6907 9.17145ZM25.9238 8.61426H26.547L26.0118 11.7668C25.3153 11.7741 25.4839 11.8107 25.264 11.5468C24.8095 12.2213 23.4458 11.5981 23.8637 10.2052C24.1716 9.16412 25.2127 8.88553 25.7259 9.50136L25.9312 8.60693L25.9238 8.61426ZM15.6672 4.65532C15.7772 4.90459 15.9165 4.88259 16.0924 5.17585C15.44 5.17585 15.0661 5.03655 14.8534 5.57174C16.5177 5.60107 16.503 5.42511 16.8036 6.04095L14.4502 6.05561L14.2596 6.43685L17.0749 6.44418L17.2801 6.90605C16.635 6.90605 15.9898 6.90605 15.3373 6.90605C13.9077 6.90605 13.981 6.76676 13.8271 7.29462H16.0411C17.4927 7.29462 17.5147 7.14066 17.6174 7.76382L13.6218 7.78582L13.5411 8.15239L17.764 8.16705L17.852 8.6216L13.4825 8.61426L13.4238 9.02482L17.918 9.01749L17.9106 9.23743C18.2479 8.91485 18.1892 8.74623 18.8197 8.56294C19.3403 8.41632 19.6702 8.52629 20.1834 8.63626L20.0734 9.31075C19.1936 9.04682 18.6218 9.1128 18.4165 10.0219C18.1892 10.997 18.959 11.3635 19.7728 10.975C19.6995 11.6861 19.5822 11.8621 18.7464 11.7521C18.1672 11.6788 17.9913 11.4002 17.7347 11.0556H16.6863L16.6276 11.4588L17.83 11.4735L17.698 11.928H13.5924C13.7024 12.4632 13.7391 12.3313 14.3256 12.3239L17.5881 12.3313C17.5294 12.5512 17.5367 12.6832 17.3388 12.7932L13.893 12.8078L14.0397 13.1817L17.2361 13.1964L16.9502 13.6436H14.3622C14.6188 14.3401 15.0734 13.9368 16.6863 14.0468C16.613 14.2154 16.4663 14.3547 16.3784 14.5014L14.9634 14.516C15.2347 15.0072 15.352 14.8386 15.9678 14.9192L15.6599 15.2858C16.7083 16.0556 17.5221 16.7008 19.2156 16.994C20.7552 17.258 22.3608 16.9647 23.5998 16.3562C28.9663 13.7096 28.8197 6.08494 23.5558 3.56294C21.6643 2.66119 19.157 2.58054 17.1995 3.60693C16.2537 4.09814 16.0265 4.45004 15.6746 4.66265L15.6672 4.65532Z" fill="#F8B02B"/>
<path fill-rule="evenodd" clip-rule="evenodd" d="M4.39868 11.7447L5.05851 11.752L5.43974 9.46465C5.55704 9.75791 5.5937 11.3048 5.61569 11.7447L6.37082 11.7667L7.30191 9.49398L6.95733 11.752L7.58783 11.7594L8.16701 8.61421C6.87669 8.59955 7.01598 8.48958 6.8107 8.99544L6.2022 10.4031L6.0849 8.64354L4.9632 8.60688L4.39868 11.7447Z" fill="#FEFEFE"/>
<path fill-rule="evenodd" clip-rule="evenodd" d="M24.8239 11.1656C24.274 10.6011 24.7432 9.66264 25.2564 9.78728C25.7623 9.91191 25.667 11.1509 24.8239 11.1656ZM25.7183 9.50135C25.2051 8.88552 24.1714 9.16411 23.8562 10.2052C23.4383 11.5908 24.8019 12.2213 25.2564 11.5468C25.4764 11.8107 25.3078 11.7668 26.0042 11.7668L26.5394 8.61426H25.9163L25.711 9.50869L25.7183 9.50135Z" fill="#FEFEFE"/>
<path fill-rule="evenodd" clip-rule="evenodd" d="M20.6817 11.1729C20.5791 10.6817 21.0336 10.4911 21.4662 10.5791C21.4882 11.0776 21.1363 11.3489 20.6817 11.1729ZM20.4471 9.24476L20.2932 9.82394C21.0263 9.64798 21.5615 9.55268 21.5835 10.1245C20.777 10.0879 19.9853 10.2125 19.89 10.997C19.7653 11.9794 20.7477 11.8987 21.3636 11.5468C21.3929 11.9207 21.2976 11.6788 21.5029 11.7594C21.5322 11.7741 21.8328 11.7668 21.8841 11.7668C22.104 11.6275 22.104 11.0849 22.1553 10.8137C22.346 9.89725 22.7125 8.78288 20.4398 9.24476H20.4471Z" fill="#FEFEFE"/>
<path fill-rule="evenodd" clip-rule="evenodd" d="M9.50876 10.557C9.52342 10.8063 9.47943 10.9969 9.31814 11.1216C9.20817 11.2022 8.87826 11.2975 8.74629 11.1729C8.33574 10.799 9.10553 10.5497 9.50143 10.557H9.50876ZM8.34307 9.80924C8.90025 9.67728 9.61873 9.52332 9.63339 10.0952C8.79028 10.2271 8.01316 10.1098 7.93251 11.0043C7.84453 11.906 8.90758 11.9793 9.41345 11.5321C9.49409 11.8914 9.39879 11.6201 9.51609 11.7667L10.0366 11.7594C10.1026 11.3415 10.4398 9.94854 10.3225 9.61129C10.1173 9.02478 9.03222 9.0981 8.4897 9.26672L8.3504 9.81657L8.34307 9.80924Z" fill="#FEFEFE"/>
<path fill-rule="evenodd" clip-rule="evenodd" d="M14.4207 10.1758C14.516 9.80188 14.6773 9.64792 15.1099 9.70657C15.2638 9.92651 15.2638 9.86053 15.2931 10.1758H14.4207ZM13.6436 10.2124L13.6143 10.6083C13.6582 11.2755 13.9295 11.5761 14.538 11.7227C14.7873 11.7813 15.2638 11.8033 15.4911 11.7227C15.777 11.6274 15.755 11.3708 15.777 11.0629C15.2272 11.2462 14.3767 11.4001 14.3107 10.6596L15.711 10.645C16.1289 10.579 15.9603 9.76522 15.7917 9.50862C15.4764 9.03941 14.0981 8.7095 13.6363 10.2124H13.6436Z" fill="#FEFEFE"/>
<path fill-rule="evenodd" clip-rule="evenodd" d="M17.9104 9.2374C17.7785 9.6113 17.6905 9.75059 17.6099 10.2125V10.6157L17.7345 11.0629C17.9911 11.4075 18.167 11.6861 18.7462 11.7594C19.582 11.8694 19.6993 11.6934 19.7726 10.9823C18.9515 11.3708 18.189 11.0043 18.4163 10.0292C18.6289 9.11276 19.2008 9.05411 20.0732 9.31804L20.1832 8.64355C19.67 8.54091 19.3401 8.43094 18.8195 8.57024C18.189 8.74619 18.2477 8.92215 17.9104 9.24473V9.2374Z" fill="#FEFEFE"/>
<path fill-rule="evenodd" clip-rule="evenodd" d="M12.3606 9.18604C11.6421 9.12739 10.7697 9.03209 10.5717 9.67725C10.2052 10.8649 11.5101 10.3811 11.4295 11.1215C11.0556 11.3268 10.821 11.2315 10.3445 11.1362L10.2491 11.6641C11.9427 12.2872 12.6978 10.8429 11.994 10.3664C11.6201 10.1171 11.3489 10.3297 11.2975 9.80188C11.7154 9.61126 11.7814 9.72124 12.2653 9.72124L12.3679 9.18604H12.3606Z" fill="#FEFEFE"/>
<path fill-rule="evenodd" clip-rule="evenodd" d="M13.1817 10.3004L13.2331 10.1245C13.2771 9.53065 13.2624 9.80191 13.7169 9.69194L13.7829 9.25939C13.6436 9.14208 13.651 9.18607 13.409 9.18607L13.4237 9.02478L13.4823 8.61422C12.6319 8.59956 12.8665 8.39428 12.5659 10.0658C12.3753 11.1142 11.9941 11.8987 13.1671 11.7594C13.563 11.7154 13.519 11.5908 13.563 11.2242C12.8078 11.3122 13.0864 10.9163 13.1817 10.3004Z" fill="#FEFEFE"/>
<path fill-rule="evenodd" clip-rule="evenodd" d="M16.6274 11.4662L16.6861 11.063L16.7594 10.6231L16.8914 10.1832C17.0527 9.7433 17.4192 9.92659 17.5365 9.7653L17.7565 9.17146C17.3239 9.15679 17.2066 9.31808 17.0307 9.53803L16.994 9.40606C16.994 9.39873 16.9867 9.37674 16.9867 9.36207C16.9867 9.34741 16.972 9.28876 16.972 9.2741L16.3195 9.18612L15.887 11.7448L16.5761 11.7741L16.6348 11.4662H16.6274Z" fill="#FEFEFE"/>
<path fill-rule="evenodd" clip-rule="evenodd" d="M22.2506 11.7594H22.9324C23.0937 10.7696 23.0571 10.0145 23.6582 9.81655L23.9588 9.69925L24.0468 9.17872C23.7242 9.18605 23.5189 9.33268 23.409 9.5013L23.3137 9.23004C23.3063 9.21537 23.3063 9.19338 23.299 9.17872L22.6905 9.17139L22.2506 11.7594Z" fill="#FEFEFE"/>
<path fill-rule="evenodd" clip-rule="evenodd" d="M24.8241 11.1656C25.6745 11.1509 25.7698 9.9119 25.2566 9.78727C24.7361 9.66263 24.2742 10.6011 24.8241 11.1656Z" fill="#F8B02B"/>
<path fill-rule="evenodd" clip-rule="evenodd" d="M9.50886 10.557C9.11296 10.5497 8.34317 10.799 8.75372 11.1729C8.88569 11.2902 9.2156 11.1949 9.32557 11.1216C9.48686 11.0043 9.52352 10.8063 9.51619 10.557H9.50886Z" fill="#E41D2C"/>
<path fill-rule="evenodd" clip-rule="evenodd" d="M16.6863 11.0556L17.7347 11.0629L17.61 10.6157H16.7596L16.6863 11.0556Z" fill="#E41D2C"/>
<path fill-rule="evenodd" clip-rule="evenodd" d="M20.6819 11.1729C21.1437 11.3415 21.4883 11.0776 21.4663 10.5791C21.0264 10.4984 20.5792 10.689 20.6819 11.1729Z" fill="#F8B02B"/>
<path fill-rule="evenodd" clip-rule="evenodd" d="M16.7595 10.6157H17.61V10.2124L16.8915 10.1758L16.7595 10.6157Z" fill="#F8B02B"/>
<path fill-rule="evenodd" clip-rule="evenodd" d="M14.4209 10.1758H15.2933C15.2713 9.86786 15.264 9.92651 15.11 9.70657C14.6775 9.64792 14.5162 9.80188 14.4209 10.1758Z" fill="#E41D2C"/>
<path fill-rule="evenodd" clip-rule="evenodd" d="M13.1818 10.3005C13.3064 10.6011 13.1158 10.4911 13.3577 10.6011L13.6216 10.6084L13.651 10.2125L13.365 10.2052C13.2184 10.1758 13.2991 10.2272 13.2404 10.1172L13.1891 10.2931L13.1818 10.3005Z" fill="#F8B02B"/>
<defs>
<linearGradient id="paint0_linear_718_2301" x1="15.6412" y1="0.00278592" x2="15.6412" y2="20.0043" gradientUnits="userSpaceOnUse">
<stop stop-color="#1D4C80"/>
<stop offset="1" stop-color="#173A63"/>
</linearGradient>
</defs>
</svg>
