<svg width="29" height="20" viewBox="0 0 29 20" fill="none" xmlns="http://www.w3.org/2000/svg">
<path d="M29.0004 18.2856C29.0004 19.2324 28.233 19.9999 27.2862 19.9999H1.71425C0.767492 20 0 19.2324 0 18.2856V1.71431C0 0.767549 0.767492 0 1.71425 0H27.2862C28.233 0 29.0004 0.767549 29.0004 1.71431V18.2856Z" fill="#306FC5"/>
<path opacity="0.15" d="M1.21876 18.2856V1.71431C1.21876 0.767549 1.98636 0 2.93312 0H1.7142C0.767492 0 0 0.767493 0 1.71431V18.2856C0 19.2325 0.767492 20 1.71425 20H2.93318C1.98642 20 1.21876 19.2324 1.21876 18.2856Z" fill="#202121"/>
<path d="M4.22473 8.0032H5.09123L4.6581 6.90039L4.22473 8.0032Z" fill="white"/>
<path d="M8.83289 11.7052V12.2173H10.2902V12.7688H8.83289V13.3598H10.4477L11.196 12.5324L10.4871 11.7052H8.83289Z" fill="white"/>
<path d="M20.2151 6.90039L19.7424 8.0032H20.6484L20.2151 6.90039Z" fill="white"/>
<path d="M13.0471 13.6745V11.4296L12.0231 12.5324L13.0471 13.6745Z" fill="white"/>
<path d="M14.977 12.0598C14.9376 11.8235 14.7799 11.7052 14.5435 11.7052H13.7166V12.4141H14.5831C14.8194 12.4142 14.977 12.2961 14.977 12.0598Z" fill="white"/>
<path d="M17.7337 12.3356C17.8125 12.2961 17.8521 12.1778 17.8521 12.0599C17.8915 11.9025 17.8125 11.8236 17.7337 11.7842C17.6552 11.7448 17.5368 11.7448 17.4189 11.7448H16.631V12.375H17.4188C17.5368 12.375 17.6551 12.375 17.7337 12.3356Z" fill="white"/>
<path d="M23.4052 5.87634V6.34896L23.169 5.87634H21.3181V6.34896L21.0817 5.87634H18.561C18.1278 5.87634 17.7732 5.95519 17.4583 6.11271V5.87634H15.686V5.91577V6.11271C15.4891 5.95524 15.2528 5.87634 14.9377 5.87634H8.59672L8.1633 6.861L7.73016 5.87634H6.31237H5.72154V6.34896L5.5246 5.87634H5.48518H3.79165L3.00383 7.72739L2.09807 9.73601L2.08142 9.77549H2.09807H4.10675H4.1319L4.14617 9.73601L4.38259 9.14535H4.89458L5.13089 9.77549H7.41501V9.73601V9.30287L7.61207 9.77543H8.75413L8.95096 9.30287V9.73601V9.77549H9.85683H14.3862H14.4256V8.75141H14.5045C14.5832 8.75141 14.5832 8.75141 14.5832 8.86962V9.73606H17.419V9.49976C17.6553 9.61808 18.0095 9.73606 18.4822 9.73606H19.6639L19.9002 9.10604H20.4514L20.6878 9.73606H22.972V9.34229V9.14541L23.3266 9.73606H23.4052H23.4447H25.1777V5.87634H23.4053H23.4052ZM10.0539 9.18483H9.65994H9.42369V8.94869V7.01858L9.38427 7.10892V7.10784L8.46803 9.18483H8.43903H8.22838H7.88757L6.94239 7.01858V9.18483H5.60339L5.32771 8.59406H3.98848L3.71275 9.18483H3.02042L4.18554 6.4278H5.17008L6.27283 9.06656V6.4278H6.50909H7.31628L7.33486 6.46728H7.33622L7.83314 7.5488L8.18998 8.35911L8.20261 8.31827L8.99027 6.42786H10.0538V9.18483H10.0539ZM12.7715 7.01858H11.2355V7.53056H12.7321V8.08191H11.2355V8.63348H12.7715V9.22408H10.566V6.42786H12.7715V7.01858ZM15.5807 8.03416C15.5817 8.03506 15.583 8.03569 15.5842 8.03654C15.5991 8.05228 15.6119 8.06809 15.6228 8.08321C15.6982 8.18211 15.7592 8.3292 15.7623 8.54489C15.7625 8.54863 15.7627 8.55231 15.7629 8.55605C15.7629 8.5582 15.7633 8.56007 15.7633 8.56228C15.7633 8.56353 15.7632 8.56449 15.7632 8.56568C15.7641 8.58737 15.7646 8.60952 15.7646 8.63348V9.18489H15.174V8.86968C15.174 8.71216 15.174 8.47579 15.0557 8.31827C15.0185 8.28106 14.9808 8.25653 14.9398 8.23909C14.8808 8.20085 14.7689 8.20023 14.5832 8.20023H13.8741V9.18489H13.2047V6.42786H14.7014C15.0557 6.42786 15.2921 6.42786 15.4891 6.54602C15.6821 6.6619 15.7986 6.85409 15.803 7.15842C15.7939 7.57757 15.5249 7.80753 15.3315 7.88508C15.3315 7.88508 15.4629 7.91153 15.5807 8.03416ZM16.9069 9.18483H16.2373V6.4278H16.9069V9.18483ZM24.5871 9.18483H23.7205L22.4602 7.09731V8.83025L22.456 8.82617V9.18653H21.7907V9.18489H21.1211L20.8848 8.59411H19.5062L19.2698 9.22414H18.5216C18.2067 9.22414 17.8126 9.14546 17.5764 8.90916C17.3401 8.67285 17.222 8.35775 17.222 7.84582C17.222 7.452 17.3007 7.05788 17.5764 6.7429C17.7732 6.50642 18.1278 6.42786 18.5609 6.42786H19.1912V7.01858H18.5609C18.3246 7.01858 18.2067 7.05783 18.0488 7.17621C17.9309 7.29431 17.8521 7.53056 17.8521 7.80623C17.8521 8.12139 17.8915 8.31827 18.0488 8.47579C18.1673 8.59412 18.3247 8.63354 18.5216 8.63354H18.7972L19.703 6.4674H20.097H20.6877L21.7906 9.10615V8.97157V8.08202V8.00334V6.46745H22.7752L23.9171 8.39723V6.46745H24.587V9.18494H24.5871V9.18483Z" fill="white"/>
<path d="M15.019 7.57608C15.0305 7.56379 15.0409 7.54985 15.0497 7.53388C15.0854 7.47741 15.1263 7.37568 15.1043 7.23685C15.1034 7.22411 15.101 7.21233 15.0983 7.20094C15.0976 7.19777 15.0977 7.19499 15.0968 7.19182L15.0965 7.19188C15.0769 7.12442 15.0268 7.08296 14.9769 7.05781C14.898 7.01856 14.7798 7.01855 14.6617 7.01855H13.8739V7.6488H14.6617C14.7798 7.6488 14.898 7.64881 14.9769 7.60933C14.9888 7.60332 14.9993 7.59517 15.0095 7.58593L15.0096 7.58644C15.0096 7.58644 15.0136 7.58219 15.019 7.57608Z" fill="white"/>
<path d="M26.9105 13.1233C26.9105 12.8476 26.8318 12.5718 26.7137 12.3749V10.6027H26.7119V10.4844C26.7119 10.4844 25.0611 10.4844 24.8154 10.4844C24.5698 10.4844 24.2717 10.7206 24.2717 10.7206V10.4844H22.4601C22.1843 10.4844 21.83 10.5632 21.6723 10.7206V10.4844H18.4428V10.6027V10.7206C18.2067 10.5238 17.7731 10.4843 17.5763 10.4843H15.4495V10.6026V10.7205C15.2526 10.5237 14.7797 10.4843 14.5433 10.4843H12.1806L11.6291 11.0751L11.117 10.4843H10.9521H10.6838H7.57251V10.6026V10.9137V14.4624H11.0384L11.6079 13.8927L12.1015 14.4624H12.141H14.1381H14.2286H14.268H14.3072V14.0685V13.5565H14.5043C14.7797 13.5565 15.1344 13.5565 15.41 13.4382V14.4228V14.5017H17.1824V14.4228V13.4776H17.261C17.3793 13.4776 17.3793 13.4776 17.3793 13.5958V14.4228V14.5017H22.7355C23.0902 14.5017 23.4445 14.4228 23.6414 14.2652V14.4228V14.5017H25.3351C25.6893 14.5017 26.044 14.4624 26.2803 14.3047C26.643 14.0872 26.8715 13.7021 26.9055 13.2427C26.9071 13.2292 26.9091 13.2156 26.9103 13.2019L26.908 13.1997C26.9095 13.1742 26.9105 13.149 26.9105 13.1233ZM14.5044 12.887H13.7165V13.0049V13.2413V13.4777V13.9109H12.4219L11.6685 13.0444L11.6659 13.0473L11.6291 13.0049L10.7626 13.9109H8.24201V11.154H10.802L11.5014 11.9201L11.6485 12.0805L11.6684 12.0598L12.4956 11.1541H14.583C14.9881 11.1541 15.4417 11.2541 15.6136 11.6662C15.6343 11.7479 15.6463 11.8386 15.6463 11.9417C15.6463 12.7294 15.0949 12.887 14.5044 12.887ZM18.4428 12.8476C18.5215 12.9654 18.5609 13.1232 18.5609 13.3597V13.9109H17.8915V13.5565C17.8915 13.3987 17.8915 13.1232 17.7731 13.0049C17.6946 12.887 17.5368 12.887 17.3007 12.887H16.5918V13.9109H15.9223V11.1146H17.4188C17.7337 11.1146 18.0094 11.1146 18.2067 11.2327C18.4034 11.3509 18.5609 11.5479 18.5609 11.863C18.5609 12.2961 18.2853 12.5324 18.0883 12.6113C18.2853 12.6898 18.4034 12.7688 18.4428 12.8476ZM21.1605 11.7052H19.6242V12.2172H21.1209V12.7687H19.6242V13.3202H21.1605V13.9109H18.9549V11.1146H21.1605V11.7052ZM22.8145 13.9109H21.5541V13.3202H22.8145C22.9324 13.3202 23.0114 13.3202 23.0904 13.2414C23.1298 13.2019 23.1689 13.1233 23.1689 13.0444C23.1689 12.9655 23.1298 12.8871 23.0904 12.8476C23.0508 12.8083 22.9719 12.7688 22.8538 12.7688C22.2236 12.7294 21.4753 12.7688 21.4753 11.9024C21.4753 11.5086 21.7116 11.0752 22.4206 11.0752H23.7203V11.7447H22.4994C22.3813 11.7447 22.3024 11.7447 22.2236 11.7841C22.145 11.8236 22.145 11.9024 22.145 11.9811C22.145 12.0993 22.2236 12.1388 22.3024 12.1778C22.3813 12.2173 22.46 12.2173 22.5387 12.2173H22.8932C23.2477 12.2173 23.484 12.2961 23.6415 12.4537C23.7597 12.5719 23.8385 12.7688 23.8385 13.0444C23.8385 13.635 23.484 13.9109 22.8145 13.9109ZM26.2016 13.635C26.0443 13.7928 25.7684 13.9109 25.3744 13.9109H24.1144V13.3202H25.3744C25.4926 13.3202 25.5715 13.3202 25.6502 13.2414C25.6895 13.2019 25.729 13.1233 25.729 13.0444C25.729 12.9655 25.6895 12.8871 25.6502 12.8476C25.6108 12.8083 25.5321 12.7688 25.4139 12.7688C24.7839 12.7294 24.0354 12.7688 24.0354 11.9025C24.0354 11.5282 24.2496 11.19 24.7778 11.0896C24.8409 11.0809 24.9076 11.0752 24.9807 11.0752H26.2805V11.7447H25.4139H25.0989H25.0595C24.9413 11.7447 24.8626 11.7447 24.7839 11.7841C24.7443 11.8236 24.7049 11.9024 24.7049 11.9811C24.7049 12.0993 24.7443 12.1388 24.8626 12.1778C24.9413 12.2173 25.0201 12.2173 25.0989 12.2173H25.1381H25.4533C25.6254 12.2173 25.7556 12.2386 25.8747 12.2804C25.9838 12.3199 26.3449 12.4814 26.4257 12.9031C26.4327 12.9473 26.4379 12.9934 26.4379 13.0444C26.4379 13.2808 26.3591 13.4777 26.2016 13.635Z" fill="white"/>
</svg>
