<svg width="28" height="20" viewBox="0 0 28 20" fill="none" xmlns="http://www.w3.org/2000/svg">
<path d="M28 17.3333C28 18.8 26.8 20 25.3333 20H2.66667C1.2 20 0 18.8 0 17.3333V2.66667C0 1.2 1.2 0 2.66667 0H25.3333C26.8 0 28 1.2 28 2.66667V17.3333Z" fill="#E1E7EA"/>
<path d="M28 17.3333C28 18.8 26.8 20 25.3334 20H8.66669C8.66669 20 24.4 17.4667 28 10V17.3333ZM12.6667 10C12.6667 11.1333 13.5334 12 14.6667 12C15.8 12 16.6667 11.1333 16.6667 10C16.6667 8.86667 15.8 8 14.6667 8C13.5334 8 12.6667 8.86667 12.6667 10Z" fill="#FF6D00"/>
<path d="M5.46667 7.99989H6.2V11.9999H5.46667V7.99989ZM9.46667 9.99989C9.46667 11.1332 10.3333 11.9999 11.4667 11.9999C11.8 11.9999 12.0667 11.9332 12.4 11.7999V10.9332C12.1333 11.1999 11.8667 11.3332 11.4667 11.3332C10.7333 11.3332 10.2 10.7999 10.2 9.99989C10.2 9.26656 10.7333 8.66656 11.4667 8.66656C11.8 8.66656 12.0667 8.79989 12.4 9.06656V8.19989C12.0667 8.06656 11.8 7.93323 11.4667 7.93323C10.3333 7.99989 9.46667 8.93323 9.46667 9.99989ZM18.4 10.5999L17.3333 7.99989H16.5333L18.2 11.9999H18.6L20.2667 7.99989H19.4667L18.4 10.5999ZM20.6 11.9999H22.7333V11.3332H21.3333V10.2666H22.6667V9.59989H21.3333V8.66656H22.7333V7.99989H20.6V11.9999ZM25.6667 9.19989C25.6667 8.46656 25.2 7.99989 24.3333 7.99989H23.2V11.9999H23.9333V10.3999H24L25.0667 11.9999H26L24.8 10.3332C25.3333 10.1999 25.6667 9.79989 25.6667 9.19989ZM24.1333 9.86656H23.9333V8.66656H24.1333C24.6 8.66656 24.8667 8.86656 24.8667 9.26656C24.8667 9.59989 24.6667 9.86656 24.1333 9.86656ZM3.13333 7.99989H2V11.9999H3.06667C4.73333 11.9999 5.13333 10.5999 5.13333 9.99989C5.2 8.79989 4.33333 7.99989 3.13333 7.99989ZM2.93333 11.3332H2.73333V8.66656H3C4 8.66656 4.4 9.33323 4.4 9.99989C4.4 10.2666 4.33333 11.3332 2.93333 11.3332ZM8.2 9.53323C7.73333 9.33323 7.6 9.26656 7.6 9.06656C7.6 8.79989 7.86667 8.66656 8.13333 8.66656C8.33333 8.66656 8.53333 8.73323 8.73333 8.99989L9.13333 8.46656C8.8 8.13323 8.46667 7.99989 8 7.99989C7.33333 7.99989 6.8 8.46656 6.8 9.13323C6.8 9.66656 7.06667 9.93323 7.73333 10.1999C8.13333 10.3332 8.46667 10.4666 8.46667 10.7999C8.46667 11.1332 8.2 11.3332 7.86667 11.3332C7.53333 11.3332 7.2 11.1332 7.06667 10.7999L6.6 11.2666C6.93333 11.7999 7.33333 11.9999 7.93333 11.9999C8.73333 11.9999 9.26667 11.4666 9.26667 10.7332C9.26667 10.1332 9 9.86656 8.2 9.53323Z" fill="black"/>
</svg>
