<svg width="30" height="20" viewBox="0 0 30 20" fill="none" xmlns="http://www.w3.org/2000/svg">
<path d="M27.4359 0H1.79487C0.803591 0 0 0.803591 0 1.79487V18.2051C0 19.1964 0.803591 20 1.79487 20H27.4359C28.4272 20 29.2308 19.1964 29.2308 18.2051V1.79487C29.2308 0.803591 28.4272 0 27.4359 0Z" fill="white"/>
<path fill-rule="evenodd" clip-rule="evenodd" d="M4.2729 12.1563C4.2729 11.754 4.06274 11.7804 3.86169 11.7762V11.6599C4.03602 11.6684 4.21477 11.6684 4.38955 11.6684C4.57733 11.6684 4.83226 11.6599 5.16347 11.6599C6.32183 11.6599 6.95281 12.4334 6.95281 13.2255C6.95281 13.6688 6.69332 14.7823 5.10968 14.7823C4.88173 14.7823 4.67121 14.7735 4.46105 14.7735C4.25991 14.7735 4.06274 14.7777 3.86169 14.7823V14.666C4.12981 14.6389 4.25991 14.6301 4.2729 14.326V12.1563ZM4.71129 14.2542C4.71129 14.5988 4.95758 14.6389 5.17665 14.6389C6.14317 14.6389 6.46035 13.9099 6.46035 13.2435C6.46035 12.407 5.92363 11.8032 5.0604 11.8032C4.8766 11.8032 4.792 11.8163 4.71129 11.8211V14.2542Z" fill="#1A1919"/>
<path fill-rule="evenodd" clip-rule="evenodd" d="M7.1095 14.6659H7.19427C7.3195 14.6659 7.40904 14.6659 7.40904 14.518V13.3058C7.40904 13.1093 7.34206 13.0821 7.17632 12.9929V12.9215C7.38657 12.8583 7.63729 12.7739 7.65498 12.7605C7.68647 12.7425 7.71293 12.7377 7.7357 12.7377C7.7576 12.7377 7.76683 12.7646 7.76683 12.8008V14.518C7.76683 14.6659 7.86539 14.6659 7.99083 14.6659H8.06652V14.7823C7.91442 14.7823 7.7576 14.7735 7.59709 14.7735C7.43606 14.7735 7.27488 14.7776 7.1095 14.7823V14.6659ZM7.58806 12.0491C7.47155 12.0491 7.36888 11.9417 7.36888 11.8255C7.36888 11.7134 7.47642 11.6104 7.58806 11.6104C7.70416 11.6104 7.80734 11.7046 7.80734 11.8255C7.80734 11.9465 7.70868 12.0491 7.58806 12.0491Z" fill="#1A1919"/>
<path fill-rule="evenodd" clip-rule="evenodd" d="M8.49171 13.3328C8.49171 13.1676 8.44233 13.1229 8.23243 13.0378V12.9529C8.42443 12.8903 8.60771 12.8319 8.82269 12.7378C8.83623 12.7378 8.8492 12.7468 8.8492 12.7825V13.0734C9.10458 12.8903 9.32382 12.7378 9.62397 12.7378C10.0037 12.7378 10.1378 13.0152 10.1378 13.3642V14.518C10.1378 14.666 10.2365 14.666 10.3616 14.666H10.4423V14.7824C10.2853 14.7824 10.1289 14.7736 9.96802 14.7736C9.80689 14.7736 9.64571 14.7777 9.48469 14.7824V14.666H9.56541C9.69069 14.666 9.77976 14.666 9.77976 14.518V13.36C9.77976 13.1047 9.62397 12.9796 9.36869 12.9796C9.2254 12.9796 8.99725 13.0956 8.8492 13.1945V14.518C8.8492 14.666 8.94807 14.666 9.07335 14.666H9.15371V14.7824C8.99725 14.7824 8.84064 14.7736 8.6793 14.7736C8.51864 14.7736 8.35741 14.7777 8.19653 14.7824V14.666H8.2772C8.40233 14.666 8.49171 14.666 8.49171 14.518V13.3328Z" fill="#1A1919"/>
<path fill-rule="evenodd" clip-rule="evenodd" d="M10.7823 13.5479C10.7731 13.5882 10.7731 13.6551 10.7823 13.8073C10.8086 14.2322 11.0821 14.5809 11.4396 14.5809C11.686 14.5809 11.8784 14.4467 12.0437 14.2815L12.1061 14.3441C11.9003 14.6169 11.6454 14.8497 11.2789 14.8497C10.5674 14.8497 10.4243 14.1604 10.4243 13.8743C10.4243 12.9974 11.0146 12.7378 11.3274 12.7378C11.6902 12.7378 12.0796 12.9659 12.0838 13.4403C12.0838 13.4674 12.0838 13.4939 12.0797 13.5209L12.0392 13.5479H10.7823ZM11.5744 13.4046C11.686 13.4046 11.699 13.3464 11.699 13.2925C11.699 13.0647 11.5605 12.8813 11.3099 12.8813C11.0372 12.8813 10.8492 13.0822 10.7956 13.4046H11.5744Z" fill="#1A1919"/>
<path fill-rule="evenodd" clip-rule="evenodd" d="M12.187 14.666H12.3078C12.4326 14.666 12.5222 14.666 12.5222 14.518V13.2613C12.5222 13.1229 12.3568 13.0956 12.2896 13.0599V12.993C12.6161 12.8543 12.7952 12.7378 12.8361 12.7378C12.8622 12.7378 12.8757 12.7513 12.8757 12.7962V13.1989H12.8851C12.9966 13.0245 13.1848 12.7378 13.4575 12.7378C13.5693 12.7378 13.7123 12.8138 13.7123 12.975C13.7123 13.0956 13.6277 13.2035 13.5025 13.2035C13.3634 13.2035 13.3634 13.0956 13.2066 13.0956C13.1307 13.0956 12.8802 13.1989 12.8802 13.4674V14.518C12.8802 14.666 12.9696 14.666 13.0949 14.666H13.3451V14.7824C13.0991 14.7777 12.9119 14.7736 12.7193 14.7736C12.5359 14.7736 12.3479 14.7777 12.187 14.7824V14.666Z" fill="#1A1919"/>
<path fill-rule="evenodd" clip-rule="evenodd" d="M13.909 14.1603C13.9673 14.4555 14.1459 14.7064 14.4731 14.7064C14.7365 14.7064 14.8349 14.5452 14.8349 14.3887C14.8349 13.8606 13.86 14.0308 13.86 13.3106C13.86 13.0598 14.0614 12.7378 14.5535 12.7378C14.6964 12.7378 14.8887 12.7784 15.063 12.8679L15.0944 13.3238H14.9916C14.9469 13.0422 14.7905 12.8812 14.5039 12.8812C14.325 12.8812 14.1552 12.9839 14.1552 13.1763C14.1552 13.7 15.1927 13.5387 15.1927 14.241C15.1927 14.5361 14.9559 14.8496 14.4234 14.8496C14.2446 14.8496 14.034 14.7869 13.8779 14.6974L13.8285 14.1829L13.909 14.1603Z" fill="#1A1919"/>
<path fill-rule="evenodd" clip-rule="evenodd" d="M19.232 12.4693H19.1205C19.0354 11.9464 18.664 11.7359 18.1634 11.7359C17.6483 11.7359 16.9016 12.0801 16.9016 13.1537C16.9016 14.0576 17.5459 14.7064 18.2346 14.7064C18.6771 14.7064 19.0447 14.402 19.134 13.932L19.237 13.9588L19.134 14.6121C18.9461 14.7286 18.4405 14.8495 18.145 14.8495C17.0986 14.8495 16.4366 14.1739 16.4366 13.1675C16.4366 12.2502 17.2553 11.5924 18.132 11.5924C18.4942 11.5924 18.8431 11.7091 19.1876 11.8299L19.232 12.4693Z" fill="#1A1919"/>
<path fill-rule="evenodd" clip-rule="evenodd" d="M19.3936 14.666H19.4783C19.604 14.666 19.6933 14.666 19.6933 14.5181V12.027C19.6933 11.736 19.6263 11.7271 19.4561 11.6778V11.6062C19.6349 11.5481 19.823 11.4678 19.9172 11.4137C19.9657 11.3873 20.0018 11.3644 20.015 11.3644C20.0423 11.3644 20.0512 11.3916 20.0512 11.4275V14.5181C20.0512 14.666 20.1497 14.666 20.2748 14.666H20.3505V14.7824C20.1989 14.7824 20.0423 14.7736 19.8812 14.7736C19.7202 14.7736 19.5594 14.7777 19.3936 14.7824V14.666Z" fill="#1A1919"/>
<path fill-rule="evenodd" clip-rule="evenodd" d="M22.2658 14.536C22.2658 14.6169 22.3147 14.6211 22.3906 14.6211C22.4445 14.6211 22.5113 14.6169 22.5699 14.6169V14.711C22.3774 14.7287 22.0105 14.8227 21.9253 14.8496L21.903 14.8359V14.4736C21.6349 14.6927 21.4289 14.8496 21.1109 14.8496C20.8694 14.8496 20.619 14.6927 20.619 14.3174V13.1719C20.619 13.0554 20.6012 12.9436 20.3511 12.9215V12.8363C20.5123 12.8319 20.8694 12.8052 20.9277 12.8052C20.9773 12.8052 20.9773 12.8363 20.9773 12.9349V14.0889C20.9773 14.2232 20.9773 14.6075 21.3665 14.6075C21.5183 14.6075 21.7196 14.4915 21.9074 14.3352V13.1315C21.9074 13.0422 21.6928 12.993 21.532 12.9485V12.868C21.9342 12.8407 22.185 12.8052 22.2297 12.8052C22.2658 12.8052 22.2658 12.8363 22.2658 12.8857V14.536Z" fill="#1A1919"/>
<path fill-rule="evenodd" clip-rule="evenodd" d="M23.1557 13.0599C23.3346 12.9081 23.5762 12.7378 23.8222 12.7378C24.3412 12.7378 24.6544 13.1901 24.6544 13.6776C24.6544 14.2634 24.2248 14.8497 23.5848 14.8497C23.2541 14.8497 23.0796 14.7419 22.9631 14.6927L22.8293 14.7957L22.7355 14.7466C22.7755 14.4827 22.7981 14.2233 22.7981 13.9503V12.027C22.7981 11.736 22.7307 11.7271 22.5607 11.6778V11.6062C22.7398 11.5481 22.9275 11.4678 23.0214 11.4137C23.0708 11.3873 23.1064 11.3644 23.1201 11.3644C23.1467 11.3644 23.1557 11.3917 23.1557 11.4275V13.0599ZM23.1557 14.2767C23.1557 14.4466 23.3169 14.7332 23.6165 14.7332C24.095 14.7332 24.2963 14.2634 24.2963 13.8651C24.2963 13.3821 23.9298 12.9796 23.581 12.9796C23.4148 12.9796 23.2764 13.0871 23.1557 13.1901V14.2767Z" fill="#1A1919"/>
<path fill-rule="evenodd" clip-rule="evenodd" d="M6.27138 16.9768L6.27625 16.972V16.0594C6.27625 15.8597 6.13733 15.8305 6.06435 15.8305H6.01071V15.7574C6.12533 15.7574 6.23728 15.7671 6.35153 15.7671C6.45133 15.7671 6.55153 15.7574 6.65097 15.7574V15.8305H6.61477C6.5122 15.8305 6.39779 15.8499 6.39779 16.1396V17.2471C6.39779 17.3324 6.4002 17.4175 6.41215 17.4931H6.31964L5.0663 16.0957V17.0987C5.0663 17.3107 5.10748 17.3833 5.29492 17.3833H5.33636V17.4565C5.23169 17.4565 5.12712 17.447 5.02246 17.447C4.91318 17.447 4.80105 17.4565 4.69141 17.4565V17.3833H4.72559C4.89348 17.3833 4.94461 17.2689 4.94461 17.0748V16.0492C4.94461 15.913 4.83228 15.8305 4.7232 15.8305H4.69141V15.7574C4.78373 15.7574 4.87882 15.7671 4.97112 15.7671C5.04441 15.7671 5.11497 15.7574 5.18794 15.7574L6.27138 16.9768Z" fill="#1A1919"/>
<path fill-rule="evenodd" clip-rule="evenodd" d="M6.41217 17.5033L6.31197 17.4999L5.07668 16.1231V17.0987C5.07961 17.3104 5.11176 17.3706 5.29504 17.3729H5.3472V17.4669H5.33638C5.23109 17.4669 5.12633 17.4572 5.02248 17.4572C4.91351 17.4572 4.80164 17.4669 4.69135 17.4669H4.68066V17.3729H4.72563C4.88648 17.372 4.93248 17.2686 4.93422 17.0747V16.0496C4.93376 15.92 4.82744 15.8411 4.72332 15.8411H4.68066V15.7468H4.69135C4.78441 15.7468 4.87966 15.7563 4.97099 15.7563C5.04361 15.7563 5.11392 15.7468 5.19597 15.7506L6.26571 16.9547V16.0594C6.26448 15.8662 6.1353 15.8427 6.06448 15.8411H6.00007V15.7468H6.01084C6.12581 15.7468 6.23786 15.7563 6.35156 15.7563C6.45063 15.7563 6.55038 15.7468 6.65099 15.7468H6.66171V15.8411H6.61479C6.51427 15.8436 6.4112 15.8525 6.40822 16.1396V17.2471C6.40822 17.3323 6.41089 17.4173 6.42258 17.4911L6.42484 17.5033H6.41217ZM6.31976 17.4821H6.40033C6.38945 17.4089 6.3875 17.3281 6.3875 17.2471V16.1396C6.3875 15.8474 6.50997 15.8199 6.61479 15.8197H6.64043V15.7679C6.54448 15.7687 6.44838 15.7775 6.35156 15.7775C6.24007 15.7775 6.13171 15.7687 6.02171 15.7679L6.02145 15.8197H6.06448C6.1393 15.8199 6.28679 15.8531 6.28679 16.0594L6.28356 16.9796L6.27879 16.9843L6.27048 16.9922L5.18797 15.7679C5.11566 15.7679 5.04525 15.7775 4.97099 15.7775C4.88181 15.7775 4.7904 15.7687 4.70213 15.7679L4.70167 15.8197H4.72332C4.83748 15.8199 4.95494 15.907 4.95494 16.0496V17.0747C4.95494 17.2695 4.90068 17.3939 4.72563 17.3945L4.70213 17.3939V17.4461C4.80754 17.4453 4.91617 17.4363 5.02248 17.4363C5.12402 17.4363 5.22535 17.4453 5.32581 17.4461V17.3945H5.29504C5.10345 17.3939 5.05602 17.3104 5.05586 17.0987V16.0684L6.31976 17.4821ZM6.26571 16.972V16.971L6.26376 16.9695L6.26571 16.972Z" fill="#1A1919"/>
<path fill-rule="evenodd" clip-rule="evenodd" d="M7.01574 15.8792C6.83298 15.8792 6.82585 15.9232 6.78939 16.1007H6.71631C6.7259 16.0325 6.73795 15.9644 6.74554 15.8939C6.75528 15.8254 6.76015 15.7575 6.76015 15.6871H6.81851C6.8381 15.7602 6.89892 15.7575 6.96498 15.7575H8.22046C8.28651 15.7575 8.34723 15.7551 8.35221 15.682L8.41036 15.692C8.40092 15.7575 8.39098 15.8233 8.3839 15.8891C8.37908 15.9548 8.37908 16.0204 8.37908 16.0861L8.30595 16.1131C8.30098 16.0232 8.28892 15.8792 8.1258 15.8792H7.72657V17.1742C7.72657 17.362 7.8119 17.3834 7.92857 17.3834H7.97498V17.4566C7.88 17.4566 7.70954 17.4472 7.57836 17.4472C7.4321 17.4472 7.26159 17.4566 7.16657 17.4566V17.3834H7.21303C7.34718 17.3834 7.41498 17.3714 7.41498 17.1792V15.8792H7.01574Z" fill="#1A1919"/>
<path fill-rule="evenodd" clip-rule="evenodd" d="M7.97513 17.467C7.87918 17.467 7.70892 17.4573 7.57826 17.4573C7.43226 17.4573 7.26195 17.467 7.16651 17.467H7.1561V17.3729H7.21297C7.34713 17.3698 7.40102 17.368 7.40405 17.1792V15.8896H7.01569V15.8683H7.42513V17.1792C7.42513 17.3747 7.34636 17.3944 7.21297 17.3945H7.17692V17.446C7.27292 17.4453 7.43692 17.4364 7.57826 17.4364C7.70497 17.4364 7.86759 17.4453 7.96405 17.446V17.3945H7.92851C7.81072 17.3944 7.716 17.3655 7.716 17.1742V15.8683H8.12574C8.28903 15.869 8.31067 16.0077 8.31574 16.0983L8.36846 16.0789C8.36846 16.0153 8.36872 15.9516 8.37302 15.8877C8.38026 15.8248 8.38908 15.7629 8.3982 15.7005L8.36123 15.6943C8.3499 15.7652 8.28128 15.769 8.22031 15.7681H6.9522C6.89487 15.7681 6.83251 15.7654 6.81061 15.6975H6.77041C6.77005 15.7648 6.76543 15.8301 6.75626 15.895C6.74897 15.9618 6.73779 16.026 6.72897 16.0905H6.78092C6.81287 15.9208 6.83374 15.8659 7.01569 15.8683V15.8896C6.83538 15.8932 6.83933 15.9233 6.79964 16.1032L6.7979 16.1115H6.7041L6.70538 16.0989C6.71533 16.031 6.72769 15.9625 6.73477 15.8919C6.74492 15.8243 6.74949 15.7569 6.74949 15.6871V15.6763H6.82682L6.82867 15.6839C6.84502 15.7453 6.8901 15.7458 6.9522 15.7469H8.22031C8.2881 15.7458 8.33749 15.7449 8.34164 15.6812L8.34246 15.6697L8.35354 15.6719L8.42236 15.6828L8.42061 15.6935C8.41092 15.7589 8.40143 15.8243 8.39405 15.8896C8.38954 15.9549 8.38954 16.0202 8.38954 16.086V16.0934L8.38246 16.0962L8.29631 16.1278L8.29574 16.1137C8.28902 16.0221 8.27964 15.8896 8.12574 15.8896H7.73723V17.1742C7.73959 17.3577 7.81241 17.3706 7.92851 17.3729H7.98543V17.467H7.97513Z" fill="#1A1919"/>
<path fill-rule="evenodd" clip-rule="evenodd" d="M8.48816 17.3833H8.52247C8.6098 17.3833 8.70257 17.3714 8.70257 17.2447V15.9695C8.70257 15.8426 8.6098 15.8306 8.52247 15.8306H8.48816V15.7574C8.63616 15.7574 8.8899 15.7671 9.09395 15.7671C9.29878 15.7671 9.5516 15.7574 9.71708 15.7574C9.71283 15.8621 9.71513 16.0231 9.72236 16.13L9.64898 16.1494C9.63729 15.9911 9.60811 15.8648 9.35242 15.8648H9.01447V16.5022H9.30359C9.44959 16.5022 9.48139 16.4197 9.49585 16.2881H9.56883C9.56395 16.3832 9.56139 16.4781 9.56139 16.5729C9.56139 16.6656 9.56395 16.758 9.56883 16.8504L9.49585 16.8649C9.48139 16.719 9.47411 16.6242 9.30595 16.6242H9.01447V17.191C9.01447 17.3494 9.15503 17.3494 9.31093 17.3494C9.60313 17.3494 9.73201 17.3298 9.80508 17.0527L9.87298 17.0694C9.84139 17.1987 9.81236 17.3273 9.79052 17.4565C9.63452 17.4565 9.35462 17.4471 9.13601 17.4471C8.91642 17.4471 8.62703 17.4565 8.48816 17.4565V17.3833Z" fill="#1A1919"/>
<path fill-rule="evenodd" clip-rule="evenodd" d="M9.79024 17.4669C9.63409 17.4669 9.35399 17.4568 9.13563 17.4568C8.91635 17.4568 8.62701 17.4669 8.48799 17.4669H8.47778V17.3729H8.5223C8.61035 17.3714 8.6905 17.3636 8.69163 17.2447V15.9695C8.6905 15.8506 8.61035 15.8427 8.5223 15.8411H8.47778V15.7468H8.48799C8.63671 15.7468 8.88989 15.7563 9.09389 15.7563C9.2985 15.7563 9.55127 15.7468 9.71701 15.7468H9.72778L9.72742 15.7581C9.72583 15.7945 9.72486 15.8377 9.72486 15.8835C9.72486 15.9677 9.72742 16.0599 9.73219 16.1292L9.73266 16.1379L9.72445 16.1404L9.63886 16.1627L9.6385 16.1502C9.62414 15.9923 9.60296 15.8774 9.35235 15.875H9.02424L9.02404 16.4915H9.30342C9.44373 16.49 9.46881 16.4183 9.48537 16.287L9.48594 16.2772H9.57953L9.57937 16.2884C9.57465 16.3835 9.57178 16.4781 9.57178 16.5729C9.57178 16.665 9.57465 16.7574 9.57937 16.8499L9.57953 16.8587L9.57071 16.8608L9.48594 16.8776L9.48537 16.8662C9.4685 16.7176 9.46742 16.6361 9.30589 16.6344H9.02424V17.191C9.0246 17.3389 9.15214 17.3381 9.31076 17.3389C9.60389 17.3372 9.72127 17.3228 9.7946 17.0498L9.79706 17.04L9.80732 17.0416L9.88532 17.0619L9.88312 17.072C9.85153 17.2007 9.8225 17.3294 9.8005 17.4583L9.79866 17.4669H9.79024ZM9.78122 17.4459C9.8025 17.3228 9.83024 17.1999 9.86009 17.0774L9.81219 17.0653C9.73932 17.3375 9.59804 17.3619 9.31076 17.3601C9.15737 17.3601 9.00404 17.3601 9.00322 17.191V16.6135H9.30589C9.47589 16.6118 9.49301 16.7143 9.50517 16.8527L9.55773 16.842C9.55301 16.7522 9.5506 16.6621 9.5506 16.5729C9.5506 16.4815 9.55301 16.3903 9.55773 16.2985H9.50517C9.49148 16.4256 9.45173 16.5143 9.30342 16.5128H9.00322V15.8539H9.35235C9.60542 15.8519 9.64737 15.9829 9.6584 16.136L9.71086 16.1217C9.7066 16.0531 9.70373 15.9648 9.70373 15.8835C9.70373 15.8419 9.70486 15.8024 9.70624 15.7679C9.54086 15.7687 9.29399 15.7775 9.09389 15.7775C8.89389 15.7775 8.64768 15.7687 8.49871 15.7679V15.8197H8.5223C8.60886 15.8199 8.71245 15.8349 8.71301 15.9695V17.2447C8.71245 17.379 8.60886 17.3939 8.5223 17.3945H8.49871V17.4459C8.6404 17.4454 8.92178 17.4363 9.13563 17.4363C9.3505 17.4363 9.62435 17.4454 9.78122 17.4459Z" fill="#1A1919"/>
<path fill-rule="evenodd" clip-rule="evenodd" d="M10.2016 16.0152C10.2016 15.8378 10.1041 15.8305 10.0286 15.8305H9.98462V15.7574C10.0626 15.7574 10.2135 15.7671 10.3621 15.7671C10.5078 15.7671 10.6249 15.7574 10.7538 15.7574C11.0601 15.7574 11.3333 15.8401 11.3333 16.186C11.3333 16.4049 11.1872 16.5386 10.995 16.6145L11.411 17.2372C11.4793 17.3402 11.5276 17.3691 11.6472 17.3833V17.4565C11.5667 17.4565 11.4888 17.4471 11.4088 17.4471C11.3333 17.4471 11.2551 17.4565 11.18 17.4565C10.9924 17.2108 10.8316 16.948 10.6735 16.6677H10.5131V17.1889C10.5131 17.3763 10.6006 17.3833 10.7121 17.3833H10.7563V17.4565C10.6172 17.4565 10.4766 17.4471 10.3376 17.4471C10.2208 17.4471 10.1063 17.4565 9.98462 17.4565V17.3833H10.0286C10.1189 17.3833 10.2016 17.3422 10.2016 17.2523V16.0152ZM10.5131 16.5799H10.6321C10.8757 16.5799 11.007 16.4876 11.007 16.2002C11.007 15.9838 10.8682 15.845 10.6513 15.845C10.5783 15.845 10.5471 15.8525 10.5131 15.8549V16.5799Z" fill="#1A1919"/>
<path fill-rule="evenodd" clip-rule="evenodd" d="M11.6473 17.4669C11.5657 17.4669 11.4883 17.4572 11.4082 17.4572C11.334 17.4572 11.2562 17.4669 11.1714 17.4629C10.9846 17.2178 10.8246 16.9565 10.6675 16.6786H10.5236V17.1884C10.5263 17.3716 10.5997 17.3703 10.7122 17.3729H10.7668V17.4669H10.7561C10.6169 17.4669 10.4755 17.4572 10.3376 17.4572C10.2213 17.4572 10.1069 17.4669 9.98469 17.4669H9.97412V17.3729H10.0286C10.1162 17.3722 10.1902 17.3341 10.1905 17.2523V16.0152C10.1887 15.8427 10.1042 15.8435 10.0286 15.8411H9.97412V15.7468H9.98469C10.0635 15.7468 10.2138 15.7563 10.3622 15.7563C10.5075 15.7563 10.6242 15.7468 10.754 15.7468C11.0608 15.7475 11.3433 15.832 11.344 16.1856C11.344 16.4052 11.1988 16.5425 11.0111 16.6191L11.4198 17.2314C11.4879 17.3324 11.5303 17.3576 11.6487 17.3729L11.6576 17.3743V17.4669H11.6473ZM10.5131 16.6571H10.6794L10.6824 16.6626C10.8409 16.9422 11.0009 17.2051 11.1801 17.4461C11.2542 17.4461 11.3324 17.4363 11.4082 17.4363C11.4859 17.4363 11.561 17.4448 11.6366 17.4459V17.3925C11.5225 17.3786 11.4689 17.3441 11.4025 17.2432L10.9787 16.6096L10.9907 16.6047C11.1814 16.5296 11.3226 16.3996 11.3227 16.1856C11.3226 15.8479 11.0599 15.7696 10.754 15.7679C10.6258 15.7679 10.5088 15.7778 10.3622 15.7778C10.2192 15.7778 10.0747 15.7687 9.9951 15.7679V15.8197H10.0286C10.1042 15.8199 10.2117 15.8324 10.2117 16.0152V17.2523C10.2117 17.3499 10.1202 17.3943 10.0286 17.3945H9.9951V17.4459C10.1121 17.4454 10.2232 17.4363 10.3376 17.4363C10.4735 17.4363 10.6109 17.4454 10.7456 17.4459V17.3945H10.7122C10.6014 17.3943 10.5023 17.3806 10.5023 17.1884V16.6571H10.5131ZM10.5131 16.5903H10.5023V15.845L10.5116 15.8443C10.545 15.8416 10.5778 15.8349 10.6514 15.8349C10.8731 15.8349 11.0175 15.9789 11.0177 16.2009C11.017 16.4915 10.8777 16.5903 10.6321 16.5903H10.5131ZM10.6321 16.5696C10.8731 16.5672 10.9945 16.4836 10.9969 16.2009C10.9955 15.9882 10.8634 15.8563 10.6514 15.8553C10.5857 15.8553 10.5546 15.8614 10.5236 15.8645V16.5696H10.6321Z" fill="#1A1919"/>
<path fill-rule="evenodd" clip-rule="evenodd" d="M13.2998 16.9768L13.3041 16.972V16.0594C13.3041 15.8597 13.1658 15.8305 13.0927 15.8305H13.0394V15.7574C13.1538 15.7574 13.2654 15.7671 13.3801 15.7671C13.4801 15.7671 13.5792 15.7574 13.6797 15.7574V15.8305H13.6431C13.5408 15.8305 13.4264 15.8499 13.4264 16.1396V17.2471C13.4264 17.3324 13.4288 17.4175 13.4408 17.4931H13.3486L12.0952 16.0957V17.0987C12.0952 17.3107 12.1363 17.3833 12.3237 17.3833H12.3652V17.4565C12.2606 17.4565 12.1558 17.447 12.0512 17.447C11.9413 17.447 11.8295 17.4565 11.72 17.4565V17.3833H11.7539C11.9219 17.3833 11.9733 17.2689 11.9733 17.0748V16.0492C11.9733 15.913 11.8612 15.8305 11.7517 15.8305H11.72V15.7574C11.8122 15.7574 11.9078 15.7671 12.0001 15.7671C12.0725 15.7671 12.1434 15.7574 12.2166 15.7574L13.2998 16.9768Z" fill="#1A1919"/>
<path fill-rule="evenodd" clip-rule="evenodd" d="M13.4407 17.5033L13.3407 17.4999L12.1053 16.1233V17.0987C12.1081 17.3107 12.1402 17.3706 12.3237 17.3729H12.3753V17.4669H12.3647C12.2595 17.4669 12.1551 17.4568 12.0507 17.4568C11.9421 17.4568 11.8296 17.4669 11.72 17.4669H11.7091V17.3729H11.7539C11.9146 17.3722 11.9607 17.2686 11.9623 17.0742V16.0492C11.962 15.9195 11.8559 15.8411 11.7517 15.8411H11.7091V15.7468H11.72C11.8129 15.7468 11.9082 15.7563 12.0001 15.7563C12.0716 15.7563 12.142 15.7468 12.2237 15.75L13.2938 16.9547V16.0594C13.2931 15.8662 13.1635 15.8422 13.0927 15.8411H13.0285V15.7468H13.0391C13.1541 15.7468 13.2663 15.7563 13.3801 15.7563C13.4792 15.7563 13.5789 15.7468 13.6793 15.7468H13.69V15.8411H13.6431C13.5426 15.8435 13.4392 15.8525 13.4367 16.1396V17.2471C13.4367 17.3323 13.4389 17.4167 13.4513 17.4913L13.4525 17.5033H13.4407ZM13.3486 17.4821H13.4283C13.4177 17.4093 13.4156 17.3281 13.4156 17.2471V16.1396C13.4157 15.8474 13.5389 15.8204 13.6431 15.8197H13.6686V15.7679C13.5729 15.7687 13.4766 15.7775 13.3801 15.7775C13.2682 15.7775 13.1598 15.7687 13.0497 15.7679V15.8197H13.0927C13.1677 15.8204 13.3151 15.8531 13.3151 16.0594L13.3116 16.9796L13.3072 16.9843L13.2996 16.9923L12.2166 15.7679C12.1442 15.7679 12.0736 15.7775 12.0001 15.7775C11.9098 15.7775 11.8188 15.7687 11.7304 15.7679V15.8197H11.7517C11.8663 15.8204 11.9834 15.9067 11.9834 16.0492V17.0742C11.9834 17.2695 11.9284 17.3939 11.7539 17.3945L11.7304 17.3943V17.446C11.8355 17.4453 11.9439 17.4363 12.0507 17.4363C12.1528 17.4363 12.254 17.4453 12.3546 17.446V17.3945H12.3237C12.1322 17.3943 12.0844 17.3107 12.0839 17.0987V16.0688L13.3486 17.4821ZM13.2938 16.972V16.9713L13.292 16.9695L13.2938 16.972Z" fill="#1A1919"/>
<path fill-rule="evenodd" clip-rule="evenodd" d="M14.071 17.1085C14.0465 17.191 14.0171 17.2549 14.0171 17.2982C14.0171 17.3714 14.1197 17.3834 14.1998 17.3834H14.2269V17.4565C14.1292 17.4513 14.0299 17.4471 13.9319 17.4471C13.8443 17.4471 13.7571 17.4513 13.6693 17.4565V17.3834H13.6841C13.7788 17.3834 13.8594 17.3273 13.8955 17.2251L14.285 16.1082C14.3168 16.0179 14.3606 15.8963 14.3755 15.806C14.4528 15.7793 14.5506 15.731 14.5967 15.7014C14.6042 15.6989 14.6087 15.6964 14.6161 15.6964C14.6235 15.6964 14.628 15.6964 14.6334 15.7041C14.6405 15.7233 14.6476 15.7453 14.6552 15.7647L15.1032 17.0379C15.1325 17.1229 15.1614 17.2129 15.1925 17.2864C15.2222 17.3546 15.2734 17.3834 15.354 17.3834H15.3685V17.4565C15.2589 17.4513 15.149 17.4471 15.0328 17.4471C14.9135 17.4471 14.7914 17.4513 14.6673 17.4565V17.3834H14.6941C14.7497 17.3834 14.8453 17.3738 14.8453 17.3129C14.8453 17.2814 14.8233 17.2157 14.7961 17.1374L14.7013 16.8552H14.1488L14.071 17.1085ZM14.4264 16.0302H14.4214L14.1951 16.7191H14.6499L14.4264 16.0302Z" fill="#1A1919"/>
<path fill-rule="evenodd" clip-rule="evenodd" d="M15.3678 17.4669C15.2584 17.4622 15.1487 17.4568 15.0328 17.4568C14.9135 17.4568 14.792 17.4622 14.6678 17.4669L14.6566 17.4674V17.3724H14.6941C14.7505 17.3724 14.8341 17.3598 14.8343 17.3128C14.8349 17.2851 14.8131 17.2184 14.7862 17.141L14.6936 16.8656H14.1566L14.081 17.1116C14.0564 17.1944 14.0269 17.2587 14.0273 17.2983C14.0281 17.3577 14.119 17.3724 14.1998 17.3724H14.2372V17.4674L14.2261 17.4669C14.1289 17.4622 14.0295 17.4568 13.9321 17.4568C13.8453 17.4568 13.7573 17.4622 13.6701 17.4669L13.6588 17.4674V17.3724H13.684C13.7745 17.3722 13.85 17.3205 13.8852 17.2216L14.2751 16.1044C14.3065 16.0143 14.3507 15.8932 14.3717 15.7959C14.4481 15.77 14.546 15.7209 14.5928 15.6915C14.5996 15.6891 14.6063 15.686 14.6161 15.686C14.622 15.6856 14.6352 15.6872 14.6431 15.6999C14.65 15.7199 14.6577 15.7417 14.6651 15.7613L15.1132 17.0344C15.1419 17.1197 15.171 17.2095 15.2029 17.2817C15.2311 17.3466 15.2758 17.3722 15.354 17.3724H15.3786V17.4674L15.3678 17.4669ZM14.6779 17.4452C14.7983 17.441 14.9165 17.4363 15.0328 17.4363C15.1457 17.4363 15.2518 17.441 15.3576 17.4452V17.3943H15.354C15.2705 17.3948 15.2131 17.3621 15.1833 17.2903C15.1516 17.2167 15.122 17.1264 15.0933 17.0411L14.6451 15.768C14.6377 15.7485 14.6308 15.7268 14.6244 15.7095C14.622 15.7071 14.6226 15.7071 14.6206 15.7071H14.6161C14.6112 15.7071 14.6082 15.7086 14.602 15.7101C14.5552 15.7405 14.4576 15.7885 14.3852 15.8075C14.3703 15.8998 14.3265 16.0213 14.2949 16.1115L13.9054 17.2285C13.8684 17.3343 13.7828 17.3945 13.684 17.3943H13.6799V17.4452C13.7634 17.441 13.8476 17.4363 13.9321 17.4363C14.0263 17.4363 14.1223 17.441 14.2155 17.4452V17.3943H14.1998C14.1203 17.3932 14.0095 17.3845 14.0068 17.2983C14.007 17.25 14.0368 17.1877 14.0606 17.1054L14.1408 16.845H14.7084L14.8059 17.1341C14.8332 17.2124 14.8554 17.2773 14.8554 17.3128C14.8517 17.3874 14.7493 17.3929 14.6941 17.3943H14.6779V17.4452ZM14.1803 16.7295L14.4134 16.0193H14.4264H14.4337L14.6651 16.7295H14.1803ZM14.2095 16.7082H14.6356L14.4238 16.056L14.2095 16.7082Z" fill="#1A1919"/>
<path fill-rule="evenodd" clip-rule="evenodd" d="M15.4755 15.8792C15.2929 15.8792 15.2856 15.9232 15.2489 16.1007H15.1757C15.1853 16.0325 15.1978 15.9644 15.2053 15.8939C15.2148 15.8254 15.2195 15.7575 15.2195 15.6871H15.2784C15.2975 15.7602 15.3584 15.7575 15.4241 15.7575H16.6803C16.7457 15.7575 16.8065 15.7551 16.8114 15.682L16.8696 15.692C16.8605 15.7575 16.8508 15.8233 16.8432 15.8891C16.8379 15.9548 16.8379 16.0204 16.8379 16.0861L16.7652 16.1131C16.7608 16.0232 16.7486 15.8792 16.5852 15.8792H16.186V17.1742C16.186 17.362 16.2713 17.3834 16.388 17.3834H16.4345V17.4566C16.3394 17.4566 16.1693 17.4472 16.0376 17.4472C15.8918 17.4472 15.721 17.4566 15.6261 17.4566V17.3834H15.6724C15.8066 17.3834 15.8745 17.3714 15.8745 17.1792V15.8792H15.4755Z" fill="#1A1919"/>
<path fill-rule="evenodd" clip-rule="evenodd" d="M16.4346 17.467C16.3389 17.467 16.1683 17.4573 16.0375 17.4573C15.8921 17.4573 15.7216 17.467 15.6262 17.467H15.6155V17.3729H15.6725C15.8067 17.3698 15.8605 17.368 15.8638 17.1792L15.8636 15.8896H15.4755V15.8683H15.8851V17.1792C15.8851 17.3747 15.8062 17.3939 15.6725 17.3944H15.6366V17.4461C15.7328 17.4453 15.8964 17.4364 16.0375 17.4364C16.1647 17.4364 16.3276 17.4453 16.4237 17.4461V17.3944H16.3879C16.2706 17.3939 16.1758 17.3657 16.1757 17.1742V15.8683H16.5852C16.7487 15.869 16.77 16.0077 16.7747 16.0983L16.8276 16.0789C16.8276 16.0153 16.828 15.9516 16.8329 15.8879C16.8395 15.8252 16.8487 15.7629 16.8576 15.7008L16.8208 15.6943C16.8097 15.7652 16.7409 15.7692 16.6804 15.7681H15.4118C15.3543 15.7687 15.2922 15.7654 15.2701 15.6973H15.2303C15.2298 15.7647 15.225 15.8301 15.2154 15.895C15.2088 15.9621 15.1971 16.0265 15.1878 16.0905H15.2401C15.2721 15.9208 15.2932 15.8656 15.4755 15.8683V15.8896C15.295 15.8928 15.299 15.9233 15.2593 16.1032L15.2575 16.1115H15.1635L15.165 16.0994C15.1753 16.031 15.1872 15.9625 15.1943 15.8924C15.2043 15.8243 15.2088 15.7569 15.2088 15.6871V15.6763H15.2861L15.2881 15.6839C15.3052 15.7453 15.3495 15.7458 15.4118 15.7469H16.6804C16.7477 15.7458 16.7968 15.7449 16.8012 15.6814L16.8016 15.6697L16.8129 15.6719L16.882 15.6828L16.8803 15.6935C16.8703 15.7589 16.8611 15.8243 16.8537 15.8896C16.8487 15.9549 16.8487 16.0203 16.8487 16.086V16.0934L16.8416 16.0962L16.7555 16.1278L16.7551 16.1137C16.7487 16.0221 16.7391 15.8896 16.5852 15.8896H16.1966V17.1742C16.1991 17.3577 16.2719 17.3706 16.3879 17.3729H16.4447V17.467H16.4346Z" fill="#1A1919"/>
<path fill-rule="evenodd" clip-rule="evenodd" d="M16.9597 17.3833H16.9938C17.0815 17.3833 17.1737 17.3714 17.1737 17.2447V15.9695C17.1737 15.8426 17.0815 15.8306 16.9938 15.8306H16.9597V15.7574C17.0547 15.7574 17.2005 15.7671 17.3196 15.7671C17.4416 15.7671 17.5877 15.7574 17.7023 15.7574V15.8306H17.6682C17.5802 15.8306 17.4877 15.8426 17.4877 15.9695V17.2447C17.4877 17.3714 17.5802 17.3833 17.6682 17.3833H17.7023V17.4565C17.5854 17.4565 17.4392 17.4471 17.3177 17.4471C17.1982 17.4471 17.0547 17.4565 16.9597 17.4565V17.3833Z" fill="#1A1919"/>
<path fill-rule="evenodd" clip-rule="evenodd" d="M17.7024 17.4669C17.5847 17.4669 17.4391 17.4568 17.3177 17.4568C17.1985 17.4568 17.0548 17.4669 16.9597 17.4669H16.9493V17.3729H16.9939C17.0816 17.3714 17.1625 17.3636 17.1631 17.2447V15.9695C17.1625 15.8506 17.0816 15.8427 16.9939 15.8411H16.9493V15.7468H16.9597C17.0548 15.7468 17.2012 15.7563 17.3196 15.7563C17.4409 15.7563 17.587 15.7468 17.7024 15.7468H17.7125V15.8411H17.6683C17.5791 15.8427 17.4991 15.8506 17.4983 15.9695V17.2447C17.4991 17.3636 17.5791 17.3714 17.6683 17.3729H17.7125V17.4669H17.7024ZM17.6913 17.4459V17.3943H17.6683C17.5809 17.3943 17.4776 17.379 17.4776 17.2447V15.9695C17.4776 15.8349 17.5809 15.8199 17.6683 15.8197H17.6913V15.7679C17.5791 15.7687 17.4381 15.7775 17.3196 15.7775C17.204 15.7775 17.0648 15.7687 16.9703 15.7679V15.8197H16.9939C17.0803 15.8199 17.184 15.8349 17.1844 15.9695V17.2447C17.184 17.379 17.0803 17.3943 16.9939 17.3943H16.9703V17.4459C17.0641 17.4448 17.2017 17.4363 17.3177 17.4363C17.4357 17.4363 17.5765 17.4453 17.6913 17.4459Z" fill="#1A1919"/>
<path fill-rule="evenodd" clip-rule="evenodd" d="M18.6729 15.7209C19.1918 15.7209 19.6054 16.0426 19.6054 16.5611C19.6054 17.1209 19.2037 17.4931 18.6854 17.4931C18.1692 17.4931 17.775 17.1425 17.775 16.6191C17.775 16.113 18.1668 15.7209 18.6729 15.7209ZM18.7097 17.3859C19.182 17.3859 19.2644 16.9694 19.2644 16.6145C19.2644 16.2587 19.0726 15.8281 18.6683 15.8281C18.2425 15.8281 18.1157 16.2079 18.1157 16.5338C18.1157 16.9694 18.3155 17.3859 18.7097 17.3859Z" fill="#1A1919"/>
<path fill-rule="evenodd" clip-rule="evenodd" d="M17.7642 16.6192C17.7652 16.1073 18.1614 15.7113 18.6728 15.7104V15.7317C18.1724 15.7317 17.7853 16.1185 17.7848 16.6192C17.7858 17.1367 18.1743 17.482 18.6855 17.4822C19.1985 17.482 19.5945 17.1152 19.5951 16.5608C19.5946 16.0488 19.1875 15.7322 18.6728 15.7317V15.7104C19.1954 15.711 19.6149 16.0358 19.6158 16.5608C19.6153 17.1265 19.2088 17.5025 18.6855 17.5034C18.1648 17.5025 17.7652 17.1484 17.7642 16.6192ZM18.105 16.5338C18.1058 16.2063 18.2336 15.8173 18.6682 15.8173C19.0815 15.8182 19.2743 16.2569 19.2751 16.6146C19.2743 16.9695 19.1908 17.396 18.7098 17.396V17.3753C19.1726 17.375 19.253 16.9695 19.2537 16.6146C19.2537 16.2619 19.0639 15.8394 18.6682 15.8388C18.2506 15.8392 18.1272 16.2096 18.1262 16.5338C18.1263 16.9674 18.3243 17.3747 18.7098 17.3753V17.396C18.3058 17.3956 18.1058 16.972 18.105 16.5338Z" fill="#1A1919"/>
<path fill-rule="evenodd" clip-rule="evenodd" d="M21.2456 16.9768L21.2507 16.972V16.0594C21.2507 15.8597 21.1115 15.8305 21.0385 15.8305H20.9855V15.7574C21.0996 15.7574 21.2118 15.7671 21.3259 15.7671C21.4259 15.7671 21.5257 15.7574 21.6256 15.7574V15.8305H21.589C21.487 15.8305 21.3721 15.8499 21.3721 16.1396V17.2471C21.3721 17.3324 21.3747 17.4175 21.3871 17.4931H21.2944L20.0407 16.0957V17.0987C20.0407 17.3107 20.0822 17.3833 20.2693 17.3833H20.311V17.4565C20.2062 17.4565 20.1018 17.447 19.9971 17.447C19.8874 17.447 19.7754 17.4565 19.6658 17.4565V17.3833H19.7C19.8683 17.3833 19.9191 17.2689 19.9191 17.0748V16.0492C19.9191 15.913 19.8075 15.8305 19.6974 15.8305H19.6658V15.7574C19.7583 15.7574 19.8532 15.7671 19.9459 15.7671C20.0188 15.7671 20.089 15.7574 20.1623 15.7574L21.2456 16.9768Z" fill="#1A1919"/>
<path fill-rule="evenodd" clip-rule="evenodd" d="M21.3872 17.5033L21.2865 17.4999L20.0512 16.1233V17.0987C20.0541 17.3107 20.0862 17.3703 20.269 17.3724H20.3214V17.4669H20.3111C20.2057 17.4669 20.1012 17.4572 19.9971 17.4572C19.888 17.4572 19.7759 17.4669 19.6656 17.4669H19.6556V17.3724H19.6999C19.8604 17.372 19.9066 17.2686 19.9086 17.0747V16.0492C19.9085 15.9195 19.8021 15.8411 19.6975 15.8411H19.6556V15.7468H19.6656C19.7589 15.7468 19.8538 15.7563 19.9458 15.7563C20.018 15.7563 20.0879 15.7468 20.1705 15.7506L21.24 16.9547V16.0594C21.2392 15.8662 21.1095 15.8427 21.0385 15.8411H20.9744V15.7468H20.9855C21.0999 15.7468 21.2122 15.7563 21.3256 15.7563C21.4252 15.7563 21.5246 15.7468 21.6257 15.7468H21.6359V15.8411H21.5889C21.4886 15.8436 21.385 15.8529 21.383 16.1396V17.2471C21.383 17.3323 21.385 17.4173 21.3968 17.4913L21.3989 17.5033H21.3872ZM21.2945 17.4821H21.3743C21.3639 17.4089 21.3615 17.3281 21.3615 17.2471V16.1396C21.3615 15.847 21.4845 15.8204 21.5889 15.8197H21.6153V15.7679C21.5187 15.7687 21.4229 15.7775 21.3256 15.7775C21.2148 15.7775 21.1059 15.7687 20.9957 15.7679V15.8197H21.0385C21.1137 15.8204 21.2607 15.8536 21.2607 16.0594L21.2581 16.9796L21.2534 16.9843L21.2456 16.9923L20.1624 15.7679C20.0904 15.7679 20.0195 15.7775 19.9458 15.7775C19.856 15.7775 19.7646 15.7687 19.6761 15.7679V15.8197H19.6975C19.8119 15.8204 19.9295 15.9067 19.9295 16.0492V17.0747C19.9295 17.2695 19.8751 17.3939 19.6999 17.3945L19.6761 17.3943V17.446C19.7818 17.4453 19.8901 17.4363 19.9971 17.4363C20.0986 17.4363 20.1995 17.4453 20.3004 17.446V17.3945H20.269C20.078 17.3943 20.0301 17.3107 20.0301 17.0987V16.0684L21.2945 17.4821ZM21.24 16.972V16.9713L21.2381 16.9695L21.24 16.972Z" fill="#1A1919"/>
<path fill-rule="evenodd" clip-rule="evenodd" d="M22.0166 17.1085C21.9928 17.191 21.9634 17.2549 21.9634 17.2982C21.9634 17.3714 22.0659 17.3834 22.1457 17.3834H22.1729V17.4565C22.0754 17.4513 21.9756 17.4471 21.8781 17.4471C21.7904 17.4471 21.7029 17.4513 21.6157 17.4565V17.3834H21.6295C21.7249 17.3834 21.8056 17.3273 21.8411 17.2251L22.2314 16.1082C22.2628 16.0179 22.3069 15.8963 22.3209 15.806C22.3991 15.7793 22.4962 15.731 22.5431 15.7014C22.5499 15.6989 22.5548 15.6964 22.5624 15.6964C22.5695 15.6964 22.5741 15.6964 22.579 15.7041C22.5864 15.7233 22.5937 15.7453 22.601 15.7647L23.0489 17.0379C23.078 17.1229 23.1074 17.2129 23.1391 17.2864C23.1684 17.3546 23.2194 17.3834 23.2997 17.3834H23.3147V17.4565C23.2049 17.4513 23.0953 17.4471 22.9784 17.4471C22.8594 17.4471 22.7375 17.4513 22.6131 17.4565V17.3834H22.6401C22.6958 17.3834 22.7913 17.3738 22.7913 17.3129C22.7913 17.2814 22.7694 17.2157 22.7422 17.1374L22.6473 16.8552H22.0949L22.0166 17.1085ZM22.3726 16.0302H22.3677L22.1407 16.7191H22.5966L22.3726 16.0302Z" fill="#1A1919"/>
<path fill-rule="evenodd" clip-rule="evenodd" d="M23.3136 17.467C23.2039 17.4626 23.0946 17.4572 22.9785 17.4572C22.8597 17.4572 22.7377 17.4626 22.6137 17.467L22.6029 17.4675V17.3729H22.64C22.6965 17.3729 22.7804 17.3598 22.7805 17.3129C22.7811 17.2852 22.7591 17.2188 22.7317 17.1411L22.6394 16.8657H22.1021L22.0269 17.1117C22.0024 17.1951 21.9736 17.2587 21.9739 17.2982C21.9739 17.3578 22.0652 17.3729 22.1457 17.3729H22.1829V17.4675L22.1719 17.467C22.0747 17.4626 21.975 17.4572 21.8781 17.4572C21.7908 17.4572 21.7035 17.4626 21.6157 17.467L21.6051 17.4675V17.3729H21.6295C21.7203 17.3725 21.7962 17.3205 21.8318 17.2217L22.2211 16.1045C22.2523 16.0144 22.2963 15.8933 22.3177 15.7964C22.3941 15.7698 22.4919 15.721 22.5393 15.6916C22.5455 15.6892 22.5523 15.6863 22.5623 15.6863C22.5686 15.6857 22.5814 15.6872 22.5888 15.7005C22.5962 15.7197 22.6034 15.7418 22.6113 15.7614L23.0589 17.0345C23.0882 17.1197 23.1173 17.2096 23.1488 17.2823C23.1775 17.3466 23.2216 17.3723 23.2994 17.3729H23.3245V17.4675L23.3136 17.467ZM22.6236 17.4455C22.744 17.4411 22.8624 17.4364 22.9785 17.4364C23.0916 17.4364 23.1975 17.4411 23.3037 17.4453L23.3035 17.3944H23.2994C23.2169 17.3946 23.1595 17.3621 23.1292 17.2904C23.097 17.2168 23.0681 17.1264 23.0389 17.0415L22.5911 15.768C22.5839 15.7486 22.5761 15.7269 22.5704 15.71C22.5684 15.7072 22.5686 15.7072 22.5671 15.7072H22.5623C22.557 15.7072 22.5544 15.7088 22.5486 15.7105C22.5009 15.7403 22.4036 15.7891 22.3317 15.8076C22.3166 15.8998 22.2723 16.0212 22.241 16.1116L21.8512 17.2286C21.8141 17.3344 21.7291 17.3946 21.6295 17.3944H21.6259V17.4453C21.7098 17.4411 21.7934 17.4364 21.8781 17.4364C21.9723 17.4364 22.0686 17.4411 22.1621 17.4453V17.3944H22.1457C22.0665 17.3933 21.9556 17.3849 21.9524 17.2982C21.9531 17.2501 21.983 17.188 22.0069 17.1055L22.0869 16.8451H22.6543L22.7521 17.1342C22.7789 17.2125 22.8011 17.2773 22.8011 17.3129C22.7976 17.3874 22.6953 17.393 22.64 17.3944H22.6236V17.4455ZM22.1262 16.7295L22.36 16.0194H22.3726H22.38L22.6101 16.7295H22.1262ZM22.1556 16.7083H22.5815L22.3697 16.0565L22.1556 16.7083Z" fill="#1A1919"/>
<path fill-rule="evenodd" clip-rule="evenodd" d="M23.9278 17.2178C23.9278 17.3157 23.9954 17.3445 24.0735 17.3546C24.1731 17.3619 24.2828 17.3619 24.3951 17.3494C24.4972 17.3372 24.5848 17.2791 24.6285 17.2178C24.6671 17.1644 24.6891 17.0962 24.704 17.0427H24.7744C24.7476 17.1815 24.7136 17.318 24.6844 17.4565C24.4706 17.4565 24.2558 17.4471 24.0419 17.4471C23.8275 17.4471 23.6135 17.4565 23.3994 17.4565V17.3833H23.4331C23.5209 17.3833 23.6162 17.3714 23.6162 17.2205V15.9695C23.6162 15.8426 23.5209 15.8305 23.4331 15.8305H23.3994V15.7574C23.5282 15.7574 23.6549 15.7671 23.7838 15.7671C23.9081 15.7671 24.0296 15.7574 24.1541 15.7574V15.8305H24.0929C24.0004 15.8305 23.9278 15.8331 23.9278 15.9621V17.2178Z" fill="#1A1919"/>
<path fill-rule="evenodd" clip-rule="evenodd" d="M24.6845 17.4669C24.4698 17.4669 24.2554 17.4572 24.0419 17.4572C23.8277 17.4572 23.6135 17.4669 23.3989 17.4669H23.3886V17.3729H23.433C23.521 17.3707 23.6046 17.3646 23.6056 17.2205V15.9691C23.6046 15.8506 23.5214 15.8427 23.433 15.8411H23.3886V15.7468H23.3989C23.5285 15.7468 23.6552 15.7563 23.7835 15.7563C23.9075 15.7563 24.0287 15.7468 24.154 15.7468H24.1638V15.8411H24.0928C23.9984 15.8435 23.9398 15.8392 23.9377 15.9621V17.2178C23.9383 17.3088 23.9979 17.3331 24.074 17.344C24.1169 17.347 24.1622 17.3485 24.209 17.3485C24.2686 17.3485 24.3304 17.3457 24.3933 17.3391C24.4925 17.3273 24.5777 17.27 24.6198 17.212C24.6574 17.1599 24.6787 17.0932 24.6934 17.0403L24.6954 17.0322H24.7872L24.7851 17.045C24.7575 17.1842 24.724 17.32 24.6945 17.4587L24.6926 17.4669H24.6845ZM24.6755 17.4459C24.7037 17.3137 24.7355 17.1844 24.7618 17.0531H24.7116C24.6967 17.1061 24.675 17.1714 24.6368 17.2244C24.5913 17.2874 24.5012 17.347 24.3956 17.3601C24.3319 17.3665 24.2686 17.3698 24.209 17.3698C24.1618 17.3698 24.1164 17.3677 24.072 17.3646C23.9929 17.3559 23.9163 17.3219 23.9164 17.2178V15.9621C23.9164 15.8267 24.002 15.8197 24.0928 15.8197H24.143V15.7679C24.0231 15.7687 23.9047 15.7778 23.7835 15.7778C23.6578 15.7778 23.5344 15.7687 23.4098 15.7679V15.8197H23.433C23.5198 15.8197 23.6261 15.8349 23.6261 15.9691V17.2205C23.6261 17.378 23.5203 17.3943 23.433 17.3943H23.4098V17.4459C23.6201 17.4454 23.8305 17.4363 24.0419 17.4363C24.2535 17.4363 24.4648 17.4454 24.6755 17.4459Z" fill="#1A1919"/>
<path fill-rule="evenodd" clip-rule="evenodd" d="M9.54163 7.16411C9.54163 4.88729 11.3873 3.04163 13.664 3.04163C15.9408 3.04163 17.7865 4.88729 17.7865 7.16411C17.7865 9.44088 15.9408 11.2867 13.664 11.2867C11.3873 11.2867 9.54163 9.44088 9.54163 7.16411Z" fill="#FFFFFE"/>
<path fill-rule="evenodd" clip-rule="evenodd" d="M16.1572 7.08297C16.1555 6.02727 15.4956 5.12692 14.5658 4.77036V9.39543C15.4956 9.0384 16.1555 8.13886 16.1572 7.08297ZM12.7919 9.39451V4.77082C11.8629 5.12851 11.204 6.02758 11.2016 7.08297C11.204 8.13815 11.8629 9.03712 12.7919 9.39451ZM13.6793 3.17372C11.5203 3.17455 9.7712 4.92404 9.77084 7.08297C9.7712 9.24168 11.5203 10.9909 13.6793 10.9912C15.8382 10.9909 17.5878 9.24168 17.5883 7.08297C17.5878 4.92404 15.8382 3.17455 13.6793 3.17372ZM13.6697 11.3601C11.3073 11.3714 9.36279 9.45743 9.36279 7.12758C9.36279 4.58129 11.3073 2.8201 13.6697 2.82056H14.7768C17.1114 2.8201 19.2421 4.58046 19.2421 7.12758C19.2421 9.45661 17.1114 11.3601 14.7768 11.3601H13.6697Z" fill="#0069AA"/>
<path fill-rule="evenodd" clip-rule="evenodd" d="M3.85681 17.3833H3.891C3.97852 17.3833 4.07103 17.3714 4.07103 17.2447V15.9695C4.07103 15.8426 3.97852 15.8306 3.891 15.8306H3.85681V15.7574C3.95171 15.7574 4.09775 15.7671 4.21734 15.7671C4.33897 15.7671 4.48482 15.7574 4.59925 15.7574V15.8306H4.56488C4.47772 15.8306 4.38503 15.8426 4.38503 15.9695V17.2447C4.38503 17.3714 4.47772 17.3833 4.56488 17.3833H4.59925V17.4565C4.48251 17.4565 4.33611 17.4471 4.21486 17.4471C4.09535 17.4471 3.95171 17.4565 3.85681 17.4565V17.3833Z" fill="#1A1919"/>
<path fill-rule="evenodd" clip-rule="evenodd" d="M4.59923 17.4669C4.48147 17.4669 4.33581 17.4572 4.21465 17.4572C4.09551 17.4572 3.95234 17.4669 3.85679 17.4669H3.84619V17.3729H3.89079C3.97915 17.3707 4.05949 17.3636 4.06023 17.2447V15.9695C4.05949 15.8504 3.97915 15.8427 3.89079 15.8411H3.84619V15.7468H3.85679C3.95234 15.7468 4.09828 15.7563 4.21732 15.7563C4.33839 15.7563 4.48415 15.7468 4.59923 15.7468H4.6101V15.8411H4.56532C4.47687 15.8427 4.39606 15.8504 4.3956 15.9695V17.2447C4.39606 17.3636 4.47687 17.3707 4.56532 17.3729H4.6101V17.4669H4.59923ZM4.58872 17.4461L4.58881 17.3943H4.56532C4.47825 17.3943 4.37478 17.379 4.37423 17.2447V15.9695C4.37478 15.8349 4.47825 15.8199 4.56532 15.8199H4.58872V15.7679C4.47641 15.768 4.33535 15.7778 4.21732 15.7778C4.10169 15.7778 3.96173 15.7687 3.86747 15.7679V15.8199H3.89079C3.97758 15.8199 4.08123 15.8349 4.08123 15.9695V17.2447C4.08123 17.379 3.97758 17.3943 3.89079 17.3943H3.86747V17.4461C3.96173 17.4453 4.0992 17.4363 4.21465 17.4363C4.33323 17.4363 4.47392 17.4454 4.58872 17.4461Z" fill="#1A1919"/>
<path fill-rule="evenodd" clip-rule="evenodd" d="M24.7447 15.6884C24.8916 15.6884 25.0011 15.8011 25.0011 15.9452C25.0011 16.0892 24.8916 16.2008 24.7447 16.2008C24.5982 16.2008 24.4885 16.0892 24.4885 15.9452C24.4885 15.8011 24.5982 15.6884 24.7447 15.6884ZM24.7447 16.1532C24.8597 16.1532 24.9476 16.0554 24.9476 15.9452C24.9476 15.8349 24.8607 15.7364 24.7447 15.7364C24.6294 15.7364 24.5417 15.8349 24.5417 15.9452C24.5417 16.0554 24.6294 16.1532 24.7447 16.1532ZM24.6173 16.0804V16.0679C24.6486 16.0634 24.6545 16.0643 24.6545 16.0451V15.8551C24.6545 15.8284 24.6519 15.8192 24.6183 15.8207V15.8076H24.7496C24.7946 15.8076 24.8361 15.8291 24.8361 15.8757C24.8361 15.9138 24.8111 15.9421 24.7755 15.9531L24.8177 16.0118C24.8373 16.0384 24.8597 16.0634 24.8741 16.0723V16.0804H24.8243C24.8003 16.0804 24.7791 16.0301 24.7321 15.9626H24.7038V16.0475C24.7038 16.0643 24.7097 16.0634 24.7411 16.0679V16.0804H24.6173ZM24.7038 15.9452H24.734C24.767 15.9452 24.7823 15.9203 24.7823 15.8798C24.7823 15.8391 24.7587 15.8246 24.7323 15.8246H24.7038V15.9452Z" fill="#1A1919"/>
</svg>
