<svg width="20" height="19" viewBox="0 0 20 19" fill="none" xmlns="http://www.w3.org/2000/svg">
<path d="M10 0C4.48 0 0 4.256 0 9.5C0 14.744 4.48 19 10 19C15.52 19 20 14.744 20 9.5C20 4.256 15.52 0 10 0ZM10.88 14.972V16.15H9.13V14.9245C8.39 14.7535 6.74 14.193 6.11 12.1125L7.76 11.476C7.82 11.685 8.34 13.4615 10.16 13.4615C11.09 13.4615 12.14 13.0055 12.14 11.932C12.14 11.02 11.44 10.545 9.86 10.0035C8.76 9.633 6.51 9.025 6.51 6.859C6.51 6.764 6.52 4.579 9.13 4.047V2.85H10.88V4.028C12.72 4.332 13.39 5.7285 13.54 6.1465L11.96 6.783C11.85 6.4505 11.37 5.51 10.06 5.51C9.36 5.51 8.25 5.8615 8.25 6.8305C8.25 7.733 9.11 8.075 10.89 8.6355C13.29 9.424 13.9 10.583 13.9 11.913C13.9 14.4115 11.4 14.8865 10.88 14.972Z" fill="white"/>
</svg>
