<svg width="20" height="19" viewBox="0 0 20 19" fill="none" xmlns="http://www.w3.org/2000/svg">
<path d="M8.46143 0.278514C9.45178 -0.092838 10.5482 -0.092838 11.5386 0.278514L18.6271 2.93571C19.0313 3.0874 19.3788 3.3549 19.6238 3.70295C19.8689 4.051 20.0001 4.46327 20 4.88543V14.1132C20.0001 14.5353 19.8689 14.9476 19.6238 15.2957C19.3788 15.6437 19.0313 15.9112 18.6271 16.0629L11.5386 18.7215C10.5482 19.0928 9.45178 19.0928 8.46143 18.7215L1.37429 16.0629C0.969897 15.9114 0.622099 15.644 0.376759 15.296C0.131418 14.9479 5.73464e-05 14.5355 0 14.1132V4.88543C5.73464e-05 4.46311 0.131418 4.05072 0.376759 3.70265C0.622099 3.35458 0.969897 3.08718 1.37429 2.93571L8.46143 0.278514ZM11.0257 1.57786C10.3655 1.3303 9.63452 1.3303 8.97429 1.57786L6.99714 2.32015L14.9829 5.26702L17.7657 4.10554L11.0257 1.57786ZM18.5714 5.28233L10.7143 8.56761V17.5196C10.819 17.4936 10.9229 17.4611 11.0257 17.4221L18.1143 14.7649C18.249 14.7143 18.3648 14.625 18.4464 14.5089C18.528 14.3928 18.5716 14.2553 18.5714 14.1146V5.28233ZM9.28571 17.5182V8.56761L1.42857 5.28373V14.1132C1.42842 14.2539 1.47202 14.3914 1.55363 14.5075C1.63524 14.6236 1.75102 14.7129 1.88571 14.7636L8.97429 17.4207C9.07619 17.4597 9.18 17.4922 9.28571 17.5182ZM2.23429 4.10554L10 7.35043L13.0914 6.05804L4.99571 3.0694L2.23429 4.10554Z" fill="white"/>
</svg>
