<svg width="20" height="15" viewBox="0 0 20 15" fill="none" xmlns="http://www.w3.org/2000/svg">
<path d="M12 8.4375H17V6.5625H12V8.4375ZM12 5.625H17V3.75H12V5.625ZM3 11.25H11V10.7344C11 10.0312 10.6333 9.47281 9.9 9.05906C9.16667 8.64531 8.2 8.43812 7 8.4375C5.8 8.43687 4.83333 8.64406 4.1 9.05906C3.36667 9.47406 3 10.0325 3 10.7344V11.25ZM7 7.5C7.55 7.5 8.021 7.31656 8.413 6.94969C8.805 6.58281 9.00067 6.14125 9 5.625C8.99933 5.10875 8.80367 4.6675 8.413 4.30125C8.02233 3.935 7.55133 3.75125 7 3.75C6.44867 3.74875 5.978 3.9325 5.588 4.30125C5.198 4.67 5.002 5.11125 5 5.625C4.998 6.13875 5.194 6.58031 5.588 6.94969C5.982 7.31906 6.45267 7.5025 7 7.5ZM0 15V0H20V15H0ZM2 13.125H18V1.875H2V13.125Z" fill="white"/>
</svg>
