<svg width="20" height="20" viewBox="0 0 20 20" fill="none" xmlns="http://www.w3.org/2000/svg">
<path d="M10 20C15.5228 20 20 15.5228 20 10C20 4.47715 15.5228 0 10 0C4.47715 0 0 4.47715 0 10C0 15.5228 4.47715 20 10 20ZM18.0372 13.4649C17.1537 15.5114 15.5114 17.1537 13.4649 18.0372L12.0709 14.5523C13.1679 14.0525 14.0525 13.1679 14.5523 12.0709L18.0372 13.4649ZM6.53513 18.0372C4.48857 17.1537 2.84629 15.5114 1.96282 13.4649L5.44769 12.0709C5.94751 13.1679 6.83214 14.0525 7.92908 14.5523L6.53513 18.0372ZM18.0372 6.53513L14.5523 7.92908C14.0525 6.83214 13.1679 5.94751 12.0709 5.44769L13.4649 1.96282C15.5114 2.84629 17.1537 4.48857 18.0372 6.53513ZM7.92908 5.44769C6.83214 5.94751 5.94751 6.83214 5.44769 7.92908L1.96282 6.53513C2.84629 4.48857 4.48857 2.84629 6.53513 1.96282L7.92908 5.44769ZM10 13.75C7.92893 13.75 6.25 12.0711 6.25 10C6.25 7.92893 7.92893 6.25 10 6.25C12.0711 6.25 13.75 7.92893 13.75 10C13.75 12.0711 12.0711 13.75 10 13.75Z" fill="white"/>
</svg>
