<svg width="20" height="18" viewBox="0 0 20 18" fill="none" xmlns="http://www.w3.org/2000/svg">
<path d="M10.9428 0.382232C10.4221 -0.127409 9.57789 -0.127412 9.05719 0.382232L0.195262 9.05598C-0.0650874 9.3108 -0.0650874 9.72394 0.195262 9.97876C0.455612 10.2336 0.877722 10.2336 1.13807 9.97876L10 1.30502L18.8619 9.97876C19.1223 10.2336 19.5444 10.2336 19.8047 9.97876C20.0651 9.72394 20.0651 9.3108 19.8047 9.05598L16.6667 5.98454V1.68725C16.6667 1.32688 16.3682 1.03474 16 1.03474H14.6667C14.2985 1.03474 14 1.32688 14 1.68725V3.3745L10.9428 0.382232Z" fill="white"/>
<path d="M10 2.72199L18 10.5521V16.0425C18 17.1236 17.1046 18 16 18H4C2.89543 18 2 17.1236 2 16.0425V10.5521L10 2.72199Z" fill="white"/>
</svg>
