<svg width="20" height="14" viewBox="0 0 20 14" fill="none" xmlns="http://www.w3.org/2000/svg">
<path d="M4.83636 8.25915C5.70909 8.27748 6.51818 8.71748 7.06364 9.48748C7.3982 9.95722 7.83923 10.3396 8.34999 10.6026C8.86075 10.8657 9.42646 11.002 10 11C11.1727 11 12.2727 10.4316 12.9364 9.47832C13.4818 8.70832 14.2909 8.26832 15.1636 8.24998C14.5091 7.13165 11.8909 6.41665 10 6.41665C8.11818 6.41665 5.49091 7.13165 4.83636 8.25915ZM2.72727 8.24998C4.23636 8.24998 5.45455 7.02165 5.45455 5.49999C5.45455 3.97833 4.23636 2.74999 2.72727 2.74999C1.21818 2.74999 0 3.97833 0 5.49999C0 7.02165 1.21818 8.24998 2.72727 8.24998ZM17.2727 8.24998C18.7818 8.24998 20 7.02165 20 5.49999C20 3.97833 18.7818 2.74999 17.2727 2.74999C15.7636 2.74999 14.5455 3.97833 14.5455 5.49999C14.5455 7.02165 15.7636 8.24998 17.2727 8.24998ZM10 5.49999C11.5091 5.49999 12.7273 4.27166 12.7273 2.74999C12.7273 1.22833 11.5091 0 10 0C8.49091 0 7.27273 1.22833 7.27273 2.74999C7.27273 4.27166 8.49091 5.49999 10 5.49999Z" fill="white"/>
<path d="M18.1818 9H15.2091C14.5091 9 13.9818 9.375 13.6818 9.76667C13.6455 9.81667 12.4455 11.5 10 11.5C8.7 11.5 7.24545 10.9667 6.31818 9.76667C5.96364 9.30833 5.40909 9 4.79091 9H1.81818C0.818182 9 0 9.75 0 10.6667V14H6.36364V12.1167C7.40909 12.7833 8.67273 13.1667 10 13.1667C11.3273 13.1667 12.5909 12.7833 13.6364 12.1167V14H20V10.6667C20 9.75 19.1818 9 18.1818 9Z" fill="white"/>
</svg>
