<svg width="16" height="30" viewBox="0 0 16 30" fill="none" xmlns="http://www.w3.org/2000/svg">
<path d="M4.6875 11.6383V28.5938C4.6875 29.3704 5.3171 30 6.09375 30C6.8704 30 7.5 29.3704 7.5 28.5938V19.6875C7.5 19.1697 7.91973 18.75 8.4375 18.75C8.95527 18.75 9.375 19.1697 9.375 19.6875V28.5938C9.375 29.3704 10.0046 30 10.7812 30C11.5579 30 12.1875 29.3704 12.1875 28.5938V12.6562C12.1875 12.3974 12.3974 12.1875 12.6563 12.1875C12.9151 12.1875 13.125 12.3974 13.125 12.6563L13.125 17.3438C13.125 18.1204 13.7546 18.75 14.5313 18.75C15.3079 18.75 15.9375 18.1204 15.9375 17.3438L15.9375 12.1875C15.9375 9.0809 13.4182 6.5625 10.3116 6.5625H5.12917C4.83809 6.5625 4.55196 6.49473 4.2916 6.36455L3.67192 6.05471C3.14521 5.79136 2.8125 5.25302 2.8125 4.66414V1.40625C2.8125 0.6296 2.1829 0 1.40625 0C0.6296 0 0 0.6296 0 1.40625V5.31156C0 6.65279 0.757762 7.8789 1.95738 8.47874L3.75 9.3751C4.35027 9.9753 4.6875 10.7894 4.6875 11.6383Z" fill="white"/>
<path d="M8.4375 5.625C9.9908 5.625 11.25 4.3658 11.25 2.8125C11.25 1.2592 9.9908 0 8.4375 0C6.8842 0 5.625 1.2592 5.625 2.8125C5.625 4.3658 6.8842 5.625 8.4375 5.625Z" fill="white"/>
</svg>
