<svg width="20" height="15" viewBox="0 0 20 15" fill="none" xmlns="http://www.w3.org/2000/svg">
<path fill-rule="evenodd" clip-rule="evenodd" d="M3.6485 0.104185C3.40153 -0.00682265 3.12057 -0.0151838 2.86743 0.0809403C2.61429 0.177064 2.4097 0.369801 2.29866 0.616759L0.0900929 5.52093C-0.0210446 5.76766 -0.029701 6.0484 0.0660254 6.3015C0.161752 6.55461 0.354032 6.75936 0.600625 6.87078L2.12201 7.55592C2.24423 7.6111 2.37613 7.64168 2.51016 7.64589C2.6442 7.6501 2.77775 7.62786 2.90319 7.58046C3.02864 7.53305 3.14351 7.46139 3.24126 7.36958C3.33901 7.27778 3.41771 7.16761 3.47288 7.04538L5.68144 2.14019C5.79258 1.89347 5.80124 1.61272 5.70551 1.35962C5.60979 1.10652 5.41751 0.901763 5.17091 0.79034L3.6485 0.104185ZM1.83816 6.15706C1.92142 6.1946 2.01127 6.21538 2.10257 6.2182C2.19387 6.22102 2.28483 6.20583 2.37026 6.1735C2.45568 6.14117 2.53391 6.09233 2.60046 6.02976C2.66701 5.9672 2.72059 5.89214 2.75814 5.80887C2.79568 5.7256 2.81646 5.63576 2.81928 5.54446C2.8221 5.45316 2.80691 5.3622 2.77458 5.27677C2.74225 5.19134 2.6934 5.11312 2.63084 5.04657C2.56828 4.98002 2.49322 4.92644 2.40995 4.88889C2.24178 4.81307 2.05038 4.80715 1.87785 4.87245C1.70532 4.93775 1.5658 5.06891 1.48997 5.23708C1.41415 5.40525 1.40823 5.59665 1.47353 5.76918C1.53883 5.94171 1.66999 6.08123 1.83816 6.15706ZM19.3412 7.00454C19.4666 6.95695 19.5814 6.88513 19.679 6.79318C19.7767 6.70123 19.8552 6.59094 19.9102 6.46863C19.9652 6.34631 19.9956 6.21436 19.9995 6.08031C20.0035 5.94626 19.9811 5.81274 19.9335 5.68737L18.0292 0.659644C17.9817 0.53417 17.9099 0.419285 17.818 0.321554C17.7261 0.223823 17.6159 0.145163 17.4935 0.0900688C17.3712 0.0349751 17.2392 0.00452808 17.1051 0.000467763C16.971 -0.00359256 16.8374 0.0188135 16.712 0.0664054L15.1528 0.657602C15.0275 0.705189 14.9127 0.77701 14.8151 0.868963C14.7174 0.960916 14.6389 1.0712 14.5839 1.19351C14.5289 1.31583 14.4985 1.44778 14.4945 1.58183C14.4906 1.71588 14.513 1.8494 14.5606 1.97478L16.4659 7.00352C16.5618 7.25668 16.7544 7.46139 17.0012 7.57263C17.248 7.68388 17.5289 7.69256 17.7821 7.59676L19.3412 7.00454ZM16.3424 1.44484C16.257 1.47722 16.1788 1.52611 16.1122 1.58872C16.0457 1.65132 15.9922 1.72641 15.9547 1.80971C15.9172 1.893 15.8965 1.98287 15.8937 2.07417C15.8909 2.16548 15.9062 2.25643 15.9386 2.34185C15.9709 2.42726 16.0198 2.50546 16.0824 2.57198C16.145 2.6385 16.2201 2.69204 16.3034 2.72954C16.3867 2.76704 16.4766 2.78776 16.5679 2.79053C16.6592 2.7933 16.7501 2.77806 16.8356 2.74568C17.0081 2.68028 17.1475 2.54903 17.2232 2.38081C17.299 2.21259 17.3048 2.02118 17.2394 1.84867C17.174 1.67617 17.0427 1.53672 16.8745 1.46098C16.7063 1.38525 16.5149 1.37944 16.3424 1.44484Z" fill="white"/>
<path fill-rule="evenodd" clip-rule="evenodd" d="M15.1242 1.75529H15.1323C15.1992 1.74945 15.2642 1.73051 15.3237 1.69954C15.3833 1.66858 15.4361 1.62619 15.4792 1.5748C15.5224 1.52341 15.555 1.46402 15.5752 1.40004C15.5954 1.33605 15.6027 1.26871 15.5969 1.20187C15.5911 1.13503 15.5721 1.06999 15.5412 1.01047C15.5102 0.950942 15.4678 0.898102 15.4164 0.854962C15.365 0.811821 15.3056 0.779225 15.2417 0.759034C15.1777 0.738843 15.1103 0.731453 15.0435 0.737286H15.0353L15.0088 0.740349L14.9097 0.75056L14.5493 0.785276C14.246 0.815908 13.8264 0.863898 13.3628 0.925162C12.449 1.04565 11.3166 1.22944 10.5753 1.47654C10.2159 1.596 9.83606 1.82778 9.47256 2.09326C9.10396 2.36282 8.72208 2.69058 8.35654 3.0306C7.70777 3.64251 7.08799 4.28444 6.49922 4.95428C6.0714 5.43827 5.97235 6.21019 6.47472 6.75748C6.80146 7.11077 7.31199 7.558 7.97364 7.75813C8.6649 7.9654 9.46133 7.88474 10.2751 7.28027L11.2952 6.62168L11.3135 6.61045C11.4596 6.69928 11.6627 6.85244 11.9058 7.05563C12.1712 7.27823 12.4592 7.54064 12.7277 7.79284C13.0325 8.08011 13.3321 8.37286 13.6263 8.67096L13.6824 8.72916L13.7018 8.74856L13.7621 8.80982L13.8386 8.84965C14.2501 9.05386 14.7025 8.98034 15.0537 8.8619C15.4192 8.73937 15.7827 8.53107 16.0921 8.32584C16.4795 8.06518 16.8464 7.77538 17.1898 7.45895L17.2082 7.44262L17.2143 7.43649C17.2143 7.43649 17.1244 7.11996 16.7732 6.75034L16.4965 7.0975L16.2626 7.77242L13.7018 8.74856L14.2205 8.28295L13.9469 7.55085C13.7757 7.38229 13.6028 7.2155 13.4282 7.05053C13.1525 6.79118 12.8482 6.51447 12.5603 6.27452C12.2815 6.03968 11.9915 5.81708 11.7495 5.68434C11.3472 5.46379 10.9531 5.62717 10.7407 5.76501L9.69107 6.443L9.67678 6.45321C9.11009 6.87797 8.64448 6.89431 8.26771 6.78097C7.85928 6.65844 7.4968 6.36029 7.22622 6.06622C7.14147 5.97433 7.11697 5.79768 7.264 5.63125C7.83077 4.98599 8.42738 4.36758 9.05188 3.77802C9.40007 3.45434 9.74927 3.15517 10.075 2.91726C10.4079 2.67425 10.6876 2.51598 10.899 2.44553C11.5361 2.23315 12.5786 2.05854 13.4966 1.93704C13.9986 1.87108 14.5017 1.81423 15.0057 1.76652L15.1007 1.75733L15.1242 1.75529Z" fill="white"/>
<path d="M14.3502 7.95312C14.2169 7.81795 14.0824 7.68388 13.9469 7.55085L14.2205 8.28295L13.7018 8.74856L16.2626 7.77242L16.4965 7.0975L16.7732 6.75034L16.5128 6.69619L16.5098 6.69823L16.4955 6.71151L16.4404 6.76256C16.153 7.02182 15.8476 7.26033 15.5265 7.47628C15.2508 7.66008 14.9721 7.81324 14.727 7.89492C14.5371 7.95925 14.4186 7.96435 14.3502 7.95312Z" fill="white"/>
<path fill-rule="evenodd" clip-rule="evenodd" d="M5.07907 2.73653L4.67677 1.79715L4.71761 1.78081L4.83299 1.7318C5.39909 1.49144 5.96751 1.25658 6.53817 1.02726C7.00165 0.840252 7.46871 0.662214 7.93907 0.493247C8.14635 0.41973 8.33933 0.356424 8.50066 0.310476C8.63952 0.269634 8.81719 0.224707 8.96218 0.224707C9.09492 0.224707 9.2348 0.255339 9.35018 0.285971C9.47475 0.319666 9.61157 0.364593 9.75044 0.415646C10.0302 0.517753 10.3457 0.650491 10.6377 0.779145C10.9783 0.931356 11.316 1.08999 11.6506 1.25496L11.718 1.28764L11.7425 1.29989C11.8637 1.36041 11.9559 1.4666 11.9988 1.59509C12.0417 1.72357 12.0318 1.86384 11.9713 1.98502C11.9107 2.10621 11.8045 2.19838 11.6761 2.24128C11.5476 2.28417 11.4073 2.27427 11.2861 2.21374L11.281 2.21068L11.2647 2.20251L11.2014 2.17188C10.8778 2.01277 10.5513 1.85958 10.2222 1.7124C9.95269 1.59098 9.67924 1.4786 9.40226 1.37545C9.29851 1.33715 9.19325 1.30309 9.08675 1.27334C9.04682 1.26203 9.00624 1.25316 8.96524 1.24679L8.95605 1.24883C8.93563 1.2519 8.88151 1.26313 8.78043 1.29172C8.61143 1.34169 8.44391 1.39651 8.27806 1.45611C7.88189 1.596 7.39484 1.78489 6.918 1.97583C6.35371 2.20184 5.79176 2.43363 5.23223 2.67118L5.11889 2.71917L5.07907 2.73653ZM4.40823 2.46799C4.35508 2.34354 4.35352 2.2031 4.40387 2.0775C4.45422 1.9519 4.55238 1.85143 4.67677 1.79817L5.07907 2.73653C5.01739 2.763 4.95111 2.77705 4.884 2.77788C4.81689 2.77871 4.75027 2.76629 4.68797 2.74135C4.62566 2.71641 4.56888 2.67943 4.52088 2.63252C4.47288 2.58561 4.4346 2.5297 4.40823 2.46799ZM2.46514 6.5114C2.51119 6.46265 2.5664 6.42344 2.6276 6.39603C2.68881 6.36861 2.75482 6.35353 2.82186 6.35163C2.8889 6.34973 2.95565 6.36107 3.01831 6.38498C3.08097 6.40889 3.1383 6.44491 3.18703 6.49098L2.83579 6.86163L2.48556 7.2333C2.43681 7.18725 2.3976 7.13204 2.37019 7.07083C2.34277 7.00963 2.32769 6.94362 2.32579 6.87658C2.32389 6.80954 2.33522 6.74279 2.35913 6.68013C2.38304 6.61747 2.41907 6.56014 2.46514 6.5114ZM7.13141 9.96975L9.95261 11.0276C10.2279 11.1307 10.5271 11.1525 10.8145 11.0902C11.1018 11.0279 11.3651 10.8842 11.573 10.6763L13.7071 8.5423C13.8029 8.44657 13.9329 8.39285 14.0684 8.39294C14.2039 8.39304 14.3337 8.44695 14.4295 8.54281C14.5252 8.63868 14.5789 8.76864 14.5788 8.90412C14.5787 9.0396 14.5248 9.16949 14.429 9.26521L12.2949 11.3992C11.9483 11.7455 11.5093 11.9847 11.0304 12.0883C10.5515 12.1918 10.053 12.1554 9.59422 11.9833L6.71481 10.904L6.69133 10.8928C6.53521 10.8065 6.38694 10.7067 6.24819 10.5946C6.08277 10.467 5.88877 10.3087 5.67945 10.1301C5.2108 9.72934 4.74853 9.3212 4.29285 8.9058C3.73605 8.40005 3.18364 7.88949 2.63566 7.3742L2.52436 7.27005L2.48556 7.2333L2.83579 6.86163L3.18703 6.49098L3.22481 6.52672L3.33407 6.62985C3.87782 7.14084 4.42581 7.6473 4.97798 8.14919C5.44767 8.57497 5.93268 9.00689 6.33906 9.35201C6.54327 9.52456 6.724 9.6716 6.87001 9.78494C7.0048 9.88806 7.08954 9.94524 7.13141 9.96873M3.67306 12.1507C3.75986 12.0472 3.88414 11.9824 4.01868 11.9703C4.15322 11.9582 4.28705 12 4.39087 12.0864L5.37007 12.9033C5.58951 13.0865 5.85584 13.2046 6.13893 13.2443L7.40097 13.422C7.46886 13.4294 7.53457 13.4504 7.59421 13.4837C7.65384 13.517 7.70619 13.5619 7.74815 13.6158C7.79011 13.6697 7.82082 13.7315 7.83848 13.7975C7.85614 13.8634 7.86038 13.9323 7.85095 13.9999C7.84152 14.0676 7.81862 14.1327 7.78359 14.1913C7.74856 14.2499 7.70212 14.3009 7.64702 14.3413C7.59192 14.3817 7.52929 14.4106 7.46282 14.4263C7.39635 14.442 7.3274 14.4442 7.26006 14.4328L5.997 14.2562C5.52515 14.1899 5.08126 13.9929 4.71557 13.6874L3.73637 12.8706C3.68482 12.8276 3.64226 12.7748 3.61112 12.7154C3.57999 12.6559 3.56088 12.5909 3.55491 12.524C3.54893 12.4571 3.5562 12.3898 3.5763 12.3257C3.5964 12.2617 3.62893 12.2022 3.67204 12.1507" fill="white"/>
</svg>
