<svg width="20" height="20" viewBox="0 0 20 20" fill="none" xmlns="http://www.w3.org/2000/svg">
<path d="M10 12.5C11.3807 12.5 12.5 11.3807 12.5 10C12.5 8.61929 11.3807 7.5 10 7.5C8.61929 7.5 7.5 8.61929 7.5 10C7.5 11.3807 8.61929 12.5 10 12.5Z" stroke="white" stroke-width="1.5" stroke-linecap="round" stroke-linejoin="round"/>
<path d="M16.1667 12.5C16.0557 12.7513 16.0226 13.0302 16.0716 13.3005C16.1206 13.5708 16.2495 13.8203 16.4417 14.0167L16.4917 14.0667C16.6466 14.2215 16.7695 14.4053 16.8534 14.6076C16.9373 14.8099 16.9805 15.0268 16.9805 15.2458C16.9805 15.4649 16.9373 15.6817 16.8534 15.8841C16.7695 16.0864 16.6466 16.2702 16.4917 16.425C16.3369 16.5799 16.1531 16.7028 15.9507 16.7867C15.7484 16.8706 15.5316 16.9138 15.3125 16.9138C15.0935 16.9138 14.8766 16.8706 14.6743 16.7867C14.472 16.7028 14.2881 16.5799 14.1333 16.425L14.0833 16.375C13.887 16.1828 13.6374 16.054 13.3671 16.005C13.0968 15.956 12.818 15.9891 12.5667 16.1C12.3203 16.2056 12.1124 16.3813 11.9674 16.6066C11.8225 16.8319 11.747 17.0963 11.75 17.3667V17.5C11.75 17.942 11.5744 18.366 11.2631 18.6773C10.9518 18.9886 10.5279 19.1642 10.0858 19.1642C9.64383 19.1642 9.21991 18.9886 8.90859 18.6773C8.59728 18.366 8.42167 17.942 8.42167 17.5V17.425C8.41838 17.1478 8.33338 16.878 8.17761 16.6513C8.02183 16.4246 7.80258 16.2516 7.54667 16.1533C7.29537 16.0424 7.01654 16.0093 6.74624 16.0583C6.47594 16.1073 6.22639 16.2362 6.03 16.4283L5.98 16.4783C5.82519 16.6333 5.64136 16.7561 5.43903 16.8401C5.23669 16.924 5.01984 16.9671 4.80083 16.9671C4.58183 16.9671 4.36497 16.924 4.16264 16.8401C3.9603 16.7561 3.77648 16.6333 3.62167 16.4783C3.46672 16.3235 3.34386 16.1397 3.25994 15.9374C3.17601 15.735 3.13288 15.5182 3.13288 15.2992C3.13288 15.0801 3.17601 14.8633 3.25994 14.661C3.34386 14.4586 3.46672 14.2748 3.62167 14.12L3.67167 14.07C3.86384 13.8736 3.99272 13.6241 4.04171 13.3538C4.0907 13.0835 4.05762 12.8046 3.94667 12.5533C3.84112 12.307 3.66536 12.099 3.44009 11.9541C3.21483 11.8091 2.95037 11.7337 2.68 11.7367H2.5C2.05797 11.7367 1.63405 11.561 1.32274 11.2497C1.01143 10.9384 0.835815 10.5145 0.835815 10.0725C0.835815 9.63046 1.01143 9.20654 1.32274 8.89523C1.63405 8.58391 2.05797 8.4083 2.5 8.4083H2.575C2.85218 8.40502 3.12204 8.32002 3.34871 8.16424C3.57539 8.00847 3.74838 7.78921 3.84667 7.5333C3.95762 7.28201 3.9907 7.00317 3.94171 6.73287C3.89272 6.46258 3.76384 6.21302 3.57167 6.01663L3.52167 5.96663C3.36672 5.81182 3.24386 5.628 3.15994 5.42566C3.07601 5.22333 3.03288 5.00647 3.03288 4.78747C3.03288 4.56846 3.07601 4.3516 3.15994 4.14927C3.24386 3.94694 3.36672 3.76311 3.52167 3.6083C3.67648 3.45335 3.8603 3.33049 4.06264 3.24657C4.26497 3.16265 4.48183 3.11951 4.70083 3.11951C4.91984 3.11951 5.13669 3.16265 5.33903 3.24657C5.54136 3.33049 5.72519 3.45335 5.88 3.6083L5.93 3.6583C6.12639 3.85048 6.37594 3.97936 6.64624 4.02835C6.91654 4.07734 7.19537 4.04426 7.44667 3.9333H7.5C7.74634 3.82775 7.95426 3.65199 8.09921 3.42672C8.24416 3.20146 8.31958 2.937 8.31667 2.66663V2.5C8.31667 2.05797 8.49228 1.63405 8.80359 1.32274C9.11491 1.01143 9.53883 0.835815 9.98083 0.835815C10.4228 0.835815 10.8468 1.01143 11.1581 1.32274C11.4694 1.63405 11.645 2.05797 11.645 2.5V2.575C11.6421 2.84537 11.7175 3.10983 11.8625 3.33509C12.0074 3.56036 12.2154 3.73612 12.4617 3.84167C12.713 3.95262 12.9918 3.9857 13.2621 3.93671C13.5324 3.88772 13.782 3.75884 13.9783 3.56667L14.0283 3.51667C14.1831 3.36172 14.367 3.23886 14.5693 3.15494C14.7716 3.07101 14.9885 3.02788 15.2075 3.02788C15.4265 3.02788 15.6434 3.07101 15.8457 3.15494C16.048 3.23886 16.2319 3.36172 16.3867 3.51667C16.5416 3.67148 16.6645 3.8553 16.7484 4.05764C16.8323 4.25997 16.8755 4.47683 16.8755 4.69583C16.8755 4.91484 16.8323 5.1317 16.7484 5.33403C16.6645 5.53637 16.5416 5.72019 16.3867 5.875L16.3367 5.925C16.1445 6.12139 16.0156 6.37094 15.9666 6.64124C15.9177 6.91154 15.9507 7.19037 16.0617 7.44167V7.5C16.1672 7.74634 16.343 7.95426 16.5683 8.09921C16.7935 8.24416 17.058 8.31958 17.3283 8.31667H17.5C17.942 8.31667 18.366 8.49228 18.6773 8.80359C18.9886 9.11491 19.1642 9.53883 19.1642 9.98083C19.1642 10.4228 18.9886 10.8468 18.6773 11.1581C18.366 11.4694 17.942 11.645 17.5 11.645H17.425C17.1546 11.6421 16.8902 11.7175 16.6649 11.8625C16.4397 12.0074 16.2639 12.2154 16.1583 12.4617L16.1667 12.5Z" stroke="white" stroke-width="1.5" stroke-linecap="round" stroke-linejoin="round"/>
</svg>