<svg width="20" height="22" viewBox="0 0 20 22" fill="none" xmlns="http://www.w3.org/2000/svg">
<path d="M19.707 18.2289L14.397 13.0003H13.4052L10.8604 15.5061V16.4828L16.1704 21.7114C16.5611 22.0962 17.1923 22.0962 17.583 21.7114L19.707 19.62C19.7999 19.5287 19.8736 19.4203 19.9238 19.3009C19.9741 19.1816 20 19.0537 20 18.9245C20 18.7953 19.9741 18.6673 19.9238 18.548C19.8736 18.4286 19.7999 18.3202 19.707 18.2289Z" fill="white"/>
<path d="M15.3689 9.06631L16.7815 7.67528L18.9055 9.76675C19.4684 9.21182 19.7845 8.45959 19.7845 7.67528C19.7845 6.89098 19.4684 6.13875 18.9055 5.58382L15.3588 2.09147L13.9462 3.48249V0.700444L13.2449 0L9.69821 3.49235L10.4095 4.1928H13.2449L11.8322 5.58382L12.8942 6.62955L9.99877 9.48065L5.861 5.40624V4.00535L2.83532 1.026L0 3.81791L3.0357 6.80713H4.44835L8.58612 10.8815L7.73452 11.7201H5.61053L0.300564 16.9488C0.207686 17.04 0.134 17.1484 0.0837246 17.2678C0.0334487 17.3871 0.00757018 17.5151 0.00757018 17.6443C0.00757018 17.7735 0.0334487 17.9014 0.0837246 18.0208C0.134 18.1401 0.207686 18.2485 0.300564 18.3398L2.42455 20.4313C2.81529 20.816 3.44647 20.816 3.8372 20.4313L9.14717 15.2026V13.1111L14.3069 8.03044L15.3689 9.06631Z" fill="white"/>
</svg>
