<svg width="20" height="19" viewBox="0 0 20 19" fill="none" xmlns="http://www.w3.org/2000/svg">
<path d="M0 0.633333C0 0.465363 0.0702401 0.304272 0.195268 0.185499C0.320296 0.066726 0.489871 0 0.666687 0H2.66675C2.81546 3.90279e-05 2.95989 0.0473109 3.07707 0.134298C3.19425 0.221285 3.27745 0.342993 3.31344 0.480067L3.85345 2.53333H19.3339C19.4318 2.53342 19.5285 2.55398 19.6171 2.59356C19.7057 2.63315 19.784 2.69077 19.8465 2.76235C19.909 2.83393 19.9541 2.9177 19.9787 3.00772C20.0032 3.09774 20.0066 3.19179 19.9886 3.2832L17.9886 13.4165C17.96 13.5617 17.8789 13.6927 17.7593 13.7871C17.6398 13.8815 17.4893 13.9332 17.3339 13.9333H5.3335C5.17807 13.9332 5.02758 13.8815 4.90803 13.7871C4.78849 13.6927 4.70741 13.5617 4.67881 13.4165L2.68008 3.3022L2.14673 1.26667H0.666687C0.489871 1.26667 0.320296 1.19994 0.195268 1.08117C0.0702401 0.962395 0 0.801304 0 0.633333ZM4.13613 3.8L5.88685 12.6667H16.7805L18.5312 3.8H4.13613ZM6.66687 13.9333C5.95961 13.9333 5.28131 14.2002 4.7812 14.6753C4.28108 15.1504 4.00012 15.7948 4.00012 16.4667C4.00012 17.1385 4.28108 17.7829 4.7812 18.258C5.28131 18.7331 5.95961 19 6.66687 19C7.37414 19 8.05244 18.7331 8.55255 18.258C9.05266 17.7829 9.33362 17.1385 9.33362 16.4667C9.33362 15.7948 9.05266 15.1504 8.55255 14.6753C8.05244 14.2002 7.37414 13.9333 6.66687 13.9333ZM16.0005 13.9333C15.2932 13.9333 14.6149 14.2002 14.1148 14.6753C13.6147 15.1504 13.3337 15.7948 13.3337 16.4667C13.3337 17.1385 13.6147 17.7829 14.1148 18.258C14.6149 18.7331 15.2932 19 16.0005 19C16.7078 19 17.3861 18.7331 17.8862 18.258C18.3863 17.7829 18.6672 17.1385 18.6672 16.4667C18.6672 15.7948 18.3863 15.1504 17.8862 14.6753C17.3861 14.2002 16.7078 13.9333 16.0005 13.9333ZM6.66687 15.2C7.02051 15.2 7.35965 15.3335 7.60971 15.571C7.85977 15.8085 8.00025 16.1307 8.00025 16.4667C8.00025 16.8026 7.85977 17.1248 7.60971 17.3623C7.35965 17.5999 7.02051 17.7333 6.66687 17.7333C6.31324 17.7333 5.97409 17.5999 5.72403 17.3623C5.47398 17.1248 5.3335 16.8026 5.3335 16.4667C5.3335 16.1307 5.47398 15.8085 5.72403 15.571C5.97409 15.3335 6.31324 15.2 6.66687 15.2ZM16.0005 15.2C16.3541 15.2 16.6933 15.3335 16.9433 15.571C17.1934 15.8085 17.3339 16.1307 17.3339 16.4667C17.3339 16.8026 17.1934 17.1248 16.9433 17.3623C16.6933 17.5999 16.3541 17.7333 16.0005 17.7333C15.6469 17.7333 15.3077 17.5999 15.0577 17.3623C14.8076 17.1248 14.6671 16.8026 14.6671 16.4667C14.6671 16.1307 14.8076 15.8085 15.0577 15.571C15.3077 15.3335 15.6469 15.2 16.0005 15.2Z" fill="white"/>
</svg>
